999
dxflib 2.2.0.0
  0
SECTION
  2
HEADER
  9
$ACADVER
  1
AC1015
  9
$HANDSEED
  5
FFFF
  9
$DIMASZ
 40
2.5
  9
$PLIMMIN
 10
0.0
 20
0.0
  9
$DIMEXE
 40
1.25
  9
$DIMGAP
 40
0.625
  9
$PLIMMAX
 10
210.0
 20
297.0
  9
$INSUNITS
 70
4
  9
$DIMSTYLE
  2
Standard
  9
$CLAYER
  8
0
  9
$DIMEXO
 40
0.625
  9
$DIMTXT
 40
2.5
  9
$CLAYER
  8
0
  0
ENDSEC
  0
SECTION
  2
TABLES
  0
TABLE
  2
VPORT
  5
8
100
AcDbSymbolTable
 70
1
  0
VPORT
  5
30
100
AcDbSymbolTableRecord
100
AcDbViewportTableRecord
  2
*Active
 70
0
 10
0.0
 20
0.0
 11
1.0
 21
1.0
 12
286.3055555555554861
 22
148.5
 13
0.0
 23
0.0
 14
10.0
 24
10.0
 15
10.0
 25
10.0
 16
0.0
 26
0.0
 36
1.0
 17
0.0
 27
0.0
 37
0.0
 40
297.0
 41
1.92798353909465
 42
50.0
 43
0.0
 44
0.0
 50
0.0
 51
0.0
 71
0
 72
100
 73
1
 74
3
 75
1
 76
1
 77
0
 78
0
281
0
 65
1
110
0.0
120
0.0
130
0.0
111
1.0
121
0.0
131
0.0
112
0.0
122
1.0
132
0.0
 79
0
146
0.0
  0
ENDTAB
  0
TABLE
  2
LTYPE
  5
5
100
AcDbSymbolTable
 70
21
  0
LTYPE
  5
14
100
AcDbSymbolTableRecord
100
AcDbLinetypeTableRecord
  2
ByBlock
 70
0
  3

 72
65
 73
0
 40
0.0
  0
LTYPE
  5
15
100
AcDbSymbolTableRecord
100
AcDbLinetypeTableRecord
  2
ByLayer
 70
0
  3

 72
65
 73
0
 40
0.0
  0
LTYPE
  5
16
100
AcDbSymbolTableRecord
100
AcDbLinetypeTableRecord
  2
CONTINUOUS
 70
0
  3
Solid line
 72
65
 73
0
 40
0.0
  0
LTYPE
  5
31
100
AcDbSymbolTableRecord
100
AcDbLinetypeTableRecord
  2
DOT
 70
0
  3
Dot . . . . . . . . . . . . . . . . . . . . . .
 72
65
 73
2
 40
6.3499999999999996
 49
0.0
 74
0
 49
-6.3499999999999996
 74
0
  0
LTYPE
  5
32
100
AcDbSymbolTableRecord
100
AcDbLinetypeTableRecord
  2
DOT2
 70
0
  3
Dot (.5x) .....................................
 72
65
 73
2
 40
3.1749999999999998
 49
0.0
 74
0
 49
-3.1749999999999998
 74
0
  0
LTYPE
  5
33
100
AcDbSymbolTableRecord
100
AcDbLinetypeTableRecord
  2
DOTX2
 70
0
  3
Dot (2x) .  .  .  .  .  .  .  .  .  .  .  .  .
 72
65
 73
2
 40
12.6999999999999993
 49
0.0
 74
0
 49
-12.6999999999999993
 74
0
  0
LTYPE
  5
34
100
AcDbSymbolTableRecord
100
AcDbLinetypeTableRecord
  2
DASHED
 70
0
  3
Dashed __ __ __ __ __ __ __ __ __ __ __ __ __ _
 72
65
 73
2
 40
19.0500000000000007
 49
12.6999999999999993
 74
0
 49
-6.3499999999999996
 74
0
  0
LTYPE
  5
35
100
AcDbSymbolTableRecord
100
AcDbLinetypeTableRecord
  2
DASHED2
 70
0
  3
Dashed (.5x) _ _ _ _ _ _ _ _ _ _ _ _ _ _ _ _ _
 72
65
 73
2
 40
9.5250000000000004
 49
6.3499999999999996
 74
0
 49
-3.1749999999999998
 74
0
  0
LTYPE
  5
36
100
AcDbSymbolTableRecord
100
AcDbLinetypeTableRecord
  2
DASHEDX2
 70
0
  3
Dashed (2x) ____  ____  ____  ____  ____  ___
 72
65
 73
2
 40
38.1000000000000014
 49
25.3999999999999986
 74
0
 49
-12.6999999999999993
 74
0
  0
LTYPE
  5
37
100
AcDbSymbolTableRecord
100
AcDbLinetypeTableRecord
  2
DASHDOT
 70
0
  3
Dash dot __ . __ . __ . __ . __ . __ . __ . __
 72
65
 73
4
 40
25.3999999999999986
 49
12.6999999999999993
 74
0
 49
-6.3499999999999996
 74
0
 49
0.0
 74
0
 49
-6.3499999999999996
 74
0
  0
LTYPE
  5
38
100
AcDbSymbolTableRecord
100
AcDbLinetypeTableRecord
  2
DASHDOT2
 70
0
  3
Dash dot (.5x) _._._._._._._._._._._._._._._.
 72
65
 73
4
 40
12.6999999999999993
 49
6.3499999999999996
 74
0
 49
-3.1749999999999998
 74
0
 49
0.0
 74
0
 49
-3.1749999999999998
 74
0
  0
LTYPE
  5
39
100
AcDbSymbolTableRecord
100
AcDbLinetypeTableRecord
  2
DASHDOTX2
 70
0
  3
Dash dot (2x) ____  .  ____  .  ____  .  ___
 72
65
 73
4
 40
50.7999999999999972
 49
25.3999999999999986
 74
0
 49
-12.6999999999999993
 74
0
 49
0.0
 74
0
 49
-12.6999999999999993
 74
0
  0
LTYPE
  5
3A
100
AcDbSymbolTableRecord
100
AcDbLinetypeTableRecord
  2
DIVIDE
 70
0
  3
Divide ____ . . ____ . . ____ . . ____ . . ____
 72
65
 73
6
 40
31.75
 49
12.6999999999999993
 74
0
 49
-6.3499999999999996
 74
0
 49
0.0
 74
0
 49
-6.3499999999999996
 74
0
 49
0.0
 74
0
 49
-6.3499999999999996
 74
0
  0
LTYPE
  5
3B
100
AcDbSymbolTableRecord
100
AcDbLinetypeTableRecord
  2
DIVIDE2
 70
0
  3
Divide (.5x) __..__..__..__..__..__..__..__.._
 72
65
 73
6
 40
15.875
 49
6.3499999999999996
 74
0
 49
-3.1749999999999998
 74
0
 49
0.0
 74
0
 49
-3.1749999999999998
 74
0
 49
0.0
 74
0
 49
-3.1749999999999998
 74
0
  0
LTYPE
  5
3C
100
AcDbSymbolTableRecord
100
AcDbLinetypeTableRecord
  2
DIVIDEX2
 70
0
  3
Divide (2x) ________  .  .  ________  .  .  _
 72
65
 73
6
 40
63.5
 49
25.3999999999999986
 74
0
 49
-12.6999999999999993
 74
0
 49
0.0
 74
0
 49
-12.6999999999999993
 74
0
 49
0.0
 74
0
 49
-12.6999999999999993
 74
0
  0
LTYPE
  5
3D
100
AcDbSymbolTableRecord
100
AcDbLinetypeTableRecord
  2
CENTER
 70
0
  3
Center ____ _ ____ _ ____ _ ____ _ ____ _ ____
 72
65
 73
4
 40
50.7999999999999972
 49
31.75
 74
0
 49
-6.3499999999999996
 74
0
 49
6.3499999999999996
 74
0
 49
-6.3499999999999996
 74
0
  0
LTYPE
  5
3E
100
AcDbSymbolTableRecord
100
AcDbLinetypeTableRecord
  2
CENTER2
 70
0
  3
Center (.5x) ___ _ ___ _ ___ _ ___ _ ___ _ ___
 72
65
 73
4
 40
28.5749999999999993
 49
19.0500000000000007
 74
0
 49
-3.1749999999999998
 74
0
 49
3.1749999999999998
 74
0
 49
-3.1749999999999998
 74
0
  0
LTYPE
  5
3F
100
AcDbSymbolTableRecord
100
AcDbLinetypeTableRecord
  2
CENTERX2
 70
0
  3
Center (2x) ________  __  ________  __  _____
 72
65
 73
4
 40
101.5999999999999943
 49
63.5
 74
0
 49
-12.6999999999999993
 74
0
 49
12.6999999999999993
 74
0
 49
-12.6999999999999993
 74
0
  0
LTYPE
  5
40
100
AcDbSymbolTableRecord
100
AcDbLinetypeTableRecord
  2
BORDER
 70
0
  3
Border __ __ . __ __ . __ __ . __ __ . __ __ .
 72
65
 73
6
 40
44.4500000000000028
 49
12.6999999999999993
 74
0
 49
-6.3499999999999996
 74
0
 49
12.6999999999999993
 74
0
 49
-6.3499999999999996
 74
0
 49
0.0
 74
0
 49
-6.3499999999999996
 74
0
  0
LTYPE
  5
41
100
AcDbSymbolTableRecord
100
AcDbLinetypeTableRecord
  2
BORDER2
 70
0
  3
Border (.5x) __.__.__.__.__.__.__.__.__.__.__.
 72
65
 73
6
 40
22.2250000000000014
 49
6.3499999999999996
 74
0
 49
-3.1749999999999998
 74
0
 49
6.3499999999999996
 74
0
 49
-3.1749999999999998
 74
0
 49
0.0
 74
0
 49
-3.1749999999999998
 74
0
  0
LTYPE
  5
42
100
AcDbSymbolTableRecord
100
AcDbLinetypeTableRecord
  2
BORDERX2
 70
0
  3
Border (2x) ____  ____  .  ____  ____  .  ___
 72
65
 73
6
 40
88.9000000000000057
 49
25.3999999999999986
 74
0
 49
-12.6999999999999993
 74
0
 49
25.3999999999999986
 74
0
 49
-12.6999999999999993
 74
0
 49
0.0
 74
0
 49
-12.6999999999999993
 74
0
  0
ENDTAB
  0
TABLE
  2
LAYER
  5
2
100
AcDbSymbolTable
 70
2
  0
LAYER
  5
10
100
AcDbSymbolTableRecord
100
AcDbLayerTableRecord
  2
0
 70
0
 62
7
420
0
  6
CONTINUOUS
370
25
390
F
  0
LAYER
  5
43
100
AcDbSymbolTableRecord
100
AcDbLayerTableRecord
  2
toolPath
 70
0
 62
7
420
0
  6
CONTINUOUS
370
0
390
F
  0
ENDTAB
  0
TABLE
  2
STYLE
  5
3
100
AcDbSymbolTable
 70
1
  0
STYLE
  5
11
100
AcDbSymbolTableRecord
100
AcDbTextStyleTableRecord
  2
Standard
 70
0
 40
0.0
 41
0.75
 50
0.0
 71
0
 42
2.5
  3
txt
  4

  0
ENDTAB
  0
TABLE
  2
VIEW
  5
6
100
AcDbSymbolTable
 70
0
  0
ENDTAB
  0
TABLE
  2
UCS
  5
7
100
AcDbSymbolTable
 70
0
  0
ENDTAB
  0
TABLE
  2
APPID
  5
9
100
AcDbSymbolTable
 70
1
  0
APPID
  5
12
100
AcDbSymbolTableRecord
100
AcDbRegAppTableRecord
  2
ACAD
 70
0
  0
ENDTAB
  0
TABLE
  2
DIMSTYLE
  5
A
100
AcDbSymbolTable
 70
1
100
AcDbDimStyleTable
 71
0
  0
DIMSTYLE
105
27
100
AcDbSymbolTableRecord
100
AcDbDimStyleTableRecord
  2
Standard
 41
2.5
 42
0.625
 43
3.75
 44
1.25
 70
0
 73
0
 74
0
 77
1
 78
8
140
2.5
141
2.5
143
0.03937007874016
147
0.625
171
3
172
1
271
2
272
2
274
3
278
44
283
0
284
8
340
11
  0
ENDTAB
  0
TABLE
  2
BLOCK_RECORD
  5
1
100
AcDbSymbolTable
 70
1
  0
BLOCK_RECORD
  5
1F
100
AcDbSymbolTableRecord
100
AcDbBlockTableRecord
  2
*Model_Space
340
22
  0
BLOCK_RECORD
  5
1B
100
AcDbSymbolTableRecord
100
AcDbBlockTableRecord
  2
*Paper_Space
340
1E
  0
BLOCK_RECORD
  5
23
100
AcDbSymbolTableRecord
100
AcDbBlockTableRecord
  2
*Paper_Space0
340
26
  0
BLOCK_RECORD
  5
44
100
AcDbSymbolTableRecord
100
AcDbBlockTableRecord
  2
toolpath
340
0
  0
ENDTAB
  0
ENDSEC
  0
SECTION
  2
BLOCKS
  0
BLOCK
  5
20
100
AcDbEntity
  8
0
100
AcDbBlockBegin
  2
*Model_Space
 70
0
 10
0.0
 20
0.0
 30
0.0
  3
*Model_Space
  1

  0
ENDBLK
  5
21
100
AcDbEntity
  8
0
100
AcDbBlockEnd
  0
BLOCK
  5
1C
100
AcDbEntity
 67
1
  8
0
100
AcDbBlockBegin
  2
*Paper_Space
 70
0
 10
0.0
 20
0.0
 30
0.0
  3
*Paper_Space
  1

  0
ENDBLK
  5
1D
100
AcDbEntity
 67
1
  8
0
100
AcDbBlockEnd
  0
BLOCK
  5
24
100
AcDbEntity
  8
0
100
AcDbBlockBegin
  2
*Paper_Space0
 70
0
 10
0.0
 20
0.0
 30
0.0
  3
*Paper_Space0
  1

  0
ENDBLK
  5
25
100
AcDbEntity
  8
0
100
AcDbBlockEnd
  0
BLOCK
  5
45
100
AcDbEntity
  8
0
100
AcDbBlockBegin
  2
toolpath
 70
0
 10
0.0
 20
0.0
 30
0.0
  3
toolpath
  1

  0
LWPOLYLINE
  5
46
  8
toolPath
 62
256
370
-1
  6
ByLayer
100
AcDbEntity
100
AcDbPolyline
 90
37
 70
0
 10
-1.082606904054197
 20
10.2366267583816821
 30
0.0
 42
-0.3100677981026409
 10
-3.2393506080676175
 20
5.5610930542434058
 30
0.0
 42
-0.0068328083355673
 10
-3.276924251613667
 20
5.5393998992054065
 30
0.0
 42
-0.3100678050571112
 10
-8.4044271684481213
 20
6.0093718577761139
 30
0.0
 42
0.2425408568907255
 10
-8.4142031208381773
 20
6.0040817618992
 30
0.0
 42
-0.0046711913560111
 10
-8.4311522420639822
 20
5.9797398843756016
 30
0.0
 42
0.0475970928296248
 10
-9.4039383777420937
 20
4.2903646527506991
 30
0.0
 42
0.4136847862421886
 10
-7.0152450709021057
 20
1.5748007899224228
 30
0.0
 42
-0.9371614972691863
 10
-7.0152448079371528
 20
-1.5935244297393729
 30
0.0
 42
0.4136848163844031
 10
-9.4039383777420795
 20
-4.3090883096459951
 30
0.0
 42
0.047597092829625
 10
-8.4311522420639733
 20
-5.9984635412708887
 30
0.0
 42
-0.0046711891846962
 10
-8.4142031286106089
 20
-6.0228054074065227
 30
0.0
 42
0.2425411577377478
 10
-8.4044271684480023
 20
-6.0280955146713131
 30
0.0
 42
-0.3100677981026499
 10
-3.2769243524070708
 20
-5.5581234997298417
 30
0.0
 42
-0.0068328265231645
 10
-3.2393506080676238
 20
-5.5798167111386867
 30
0.0
 42
-0.3100677981026401
 10
-1.0826069040542103
 20
-10.2553504152769364
 30
0.0
 42
0.2425411577409232
 10
-1.0731375566928705
 20
-10.261171591491923
 30
0.0
 42
-0.0046711891846978
 10
-1.0435823255172068
 20
-10.2636790212463538
 30
0.0
 42
0.0475970928296248
 10
0.9058526094332398
 20
-10.2614489113805245
 30
0.0
 42
0.4136847868703548
 10
2.0632532443896365
 20
-6.8349978894690473
 30
0.0
 42
-0.9371614956447691
 10
4.8071032430170808
 20
-5.2508350568277882
 30
0.0
 42
0.4136848163844022
 10
8.3531973335181213
 20
-5.9617224301820801
 30
0.0
 42
0.0475970928296239
 10
9.3298461327904292
 20
-4.2745773084231038
 30
0.0
 42
-0.0046711891846979
 10
9.3424522505127321
 20
-4.2477280125330434
 30
0.0
 42
0.2425411577377581
 10
9.3421456377115
 20
-4.2366167290534538
 30
0.0
 42
-0.3100677981026495
 10
6.3713865256839322
 20
-0.031055039856447
 30
0.0
 42
-0.0068328265231682
 10
6.3713865256839428
 20
0.0123313829612045
 30
0.0
 42
-0.3100677981026467
 10
9.3421456377114716
 20
4.2178930721580983
 30
0.0
 42
0.2425408994103285
 10
9.3424522556442184
 20
4.229004344968633
 30
0.0
 42
-0.0046712063275817
 10
9.3298460923808246
 20
4.2558537397273266
 30
0.0
 42
0.0475970904609003
 10
8.3531973335181409
 20
5.9429987732867904
 30
0.0
 42
0.4136847881824176
 10
4.8071033798743965
 20
5.2321116050182654
 30
0.0
 42
-0.9371614922518411
 10
2.0632531301293366
 20
6.8162740012242313
 30
0.0
 42
0.413684816384402
 10
0.9058526094332267
 20
10.2427252544851584
 30
0.0
 42
0.0475970905599822
 10
-1.043582232969559
 20
10.2449553730742622
 30
0.0
 42
-0.0046712038240484
 10
-1.0731375566928787
 20
10.2424479345966368
 30
0.0
 42
0.2425411577403507
 10
-1.0826069040541957
 20
10.2366267583816786
 30
0.0
  0
LINE
  5
47
100
AcDbEntity
100
AcDbLine
  8
toolPath
 62
256
370
-1
  6
ByLayer
 10
11.2555322763334118
 20
-0.0181009834411938
 30
0.0
 11
12.4621207033222277
 21
-0.0181009834433965
 31
0.0
  0
LWPOLYLINE
  5
48
  8
toolPath
 62
256
370
-1
  6
ByLayer
100
AcDbEntity
100
AcDbPolyline
 90
1423
 70
0
 10
-16.2989471759494471
 20
18.197861164702811
 30
0.0
 42
-0.0590939132574088
 10
-16.3917174776826826
 20
18.5601113267448277
 30
0.0
 10
-16.4032587271146539
 20
18.6466017796491919
 30
0.0
 42
-0.0983821973859407
 10
-16.3640092666678605
 20
19.2640937878850558
 30
0.0
 10
-16.3473254721039005
 20
19.3269082022992045
 30
0.0
 42
-0.1322633124674827
 10
-15.9353159041139953
 20
20.0421609835176859
 30
0.0
 10
-15.8940342774103982
 20
20.083425062077449
 30
0.0
 42
-0.1124146792509621
 10
-15.2972687849351452
 20
20.4586453299974131
 30
0.0
 10
-15.2350165379482085
 20
20.4804847753385992
 30
0.0
 42
-0.0702210162773176
 10
-14.7999002419969017
 20
20.5674172235585395
 30
0.0
 10
-14.7203045865829267
 20
20.5719577383169785
 30
0.0
 42
-0.0426362536807496
 10
-14.4501633859758236
 20
20.5643274919473349
 30
0.0
 10
-14.3568515339910974
 20
20.5536947787588709
 30
0.0
 42
-0.0279254890323418
 10
-14.1821959892951668
 20
20.5238406627392429
 30
0.0
 10
-14.0787951525960153
 20
20.5001604242396773
 30
0.0
 42
-0.0200002938295889
 10
-13.9562798363871714
 20
20.4668952022253485
 30
0.0
 10
-13.846417226829864
 20
20.4322931410505397
 30
0.0
 42
-0.0154890719275085
 10
-13.7535870067097399
 20
20.399862668367394
 30
0.0
 10
-13.6406230793779528
 20
20.3564280060526137
 30
0.0
 42
-0.0122364927381741
 10
-13.5688125354491564
 20
20.3267801253486908
 30
0.0
 10
-13.4548468269386561
 20
20.2764296428434214
 30
0.0
 42
-0.0097445706960571
 10
-13.3987500191720645
 20
20.2503277090256049
 30
0.0
 10
-13.2855098662666578
 20
20.1949272860083404
 30
0.0
 42
-0.007857225561809
 10
-13.2410452690753786
 20
20.1723011537888048
 30
0.0
 10
-13.1302579542627065
 20
20.1137166625126049
 30
0.0
 42
-0.0063780636012405
 10
-13.0947007472290515
 20
20.0943295896153522
 30
0.0
 10
-12.9880935529967942
 20
20.0344269023333403
 30
0.0
 42
-0.0051684065202065
 10
-12.9596501318500525
 20
20.0180554012741041
 30
0.0
 10
-12.858950340685869
 20
19.9587003902393327
 30
0.0
 42
-0.0041190619514834
 10
-12.8365278380966252
 20
19.9452338847892783
 30
0.0
 10
-12.7434627324881831
 20
19.8882924222548532
 30
0.0
 42
-0.0031239952660432
 10
-12.7266065775842243
 20
19.8778337604352373
 30
0.0
 10
-12.6429034400191966
 20
19.8251717186542358
 30
0.0
 42
-0.0020404389965899
 10
-12.6319649163700944
 20
19.8182272497655134
 30
0.0
 10
-12.5593510293361206
 20
19.7717105009910448
 30
0.0
 42
-0.0006239794955776
 10
-12.5560173092745266
 20
19.7695690341411421
 30
0.0
 10
-12.4959708796169835
 20
19.7308913362691349
 30
0.0
 10
-12.453856072551865
 20
19.7040894619544353
 30
0.0
 10
-12.4346126661427121
 20
19.6925095889438104
 30
0.0
 10
-12.4401841715366714
 20
19.6965688792538351
 30
0.0
 10
-12.4656258551726609
 20
19.7113980653911618
 30
0.0
 10
-12.4947464195802169
 20
19.7266493912940071
 30
0.0
 10
-12.5073307082869221
 20
19.7330936701358119
 30
0.0
 10
-12.4914847079673272
 20
19.7274821882123526
 30
0.0
 10
-12.4454993419866895
 20
19.7104950198146049
 30
0.0
 10
-12.3715826906216577
 20
19.6832833556246563
 30
0.0
 42
-0.0019609086916605
 10
-12.3599150622022194
 20
19.6789345815871108
 30
0.0
 10
-12.2657466459306299
 20
19.6434147699266468
 30
0.0
 42
-0.005555424202666
 10
-12.2328810673959385
 20
19.6305991664695121
 30
0.0
 10
-12.1273466363982969
 20
19.5880902797892453
 30
0.0
 42
-0.0086346233481622
 10
-12.0768526770492972
 20
19.566730851085179
 30
0.0
 10
-11.9642804642742959
 20
19.5168027894778824
 30
0.0
 42
-0.0117859807363667
 10
-11.8966100188939183
 20
19.4848602320431397
 30
0.0
 10
-11.781328257290248
 20
19.4270828956015542
 30
0.0
 42
-0.0154660042781893
 10
-11.6949524001551968
 20
19.380396371992699
 30
0.0
 10
-11.5812893226715339
 20
19.3143396608095621
 30
0.0
 42
-0.0200788387547008
 10
-11.4737568372361451
 20
19.2459285923191601
 30
0.0
 10
-11.3660406768211644
 20
19.1711624064872588
 30
0.0
 42
-0.026041173779968
 10
-11.2353763207236952
 20
19.0699982467509983
 30
0.0
 10
-11.1379353103261138
 20
18.9860924863629883
 30
0.0
 42
-0.0337029953327107
 10
-10.9857040178908587
 20
18.8360133096189735
 30
0.0
 10
-10.9028663904593586
 20
18.7425378747676525
 30
0.0
 42
-0.0429925622450743
 10
-10.7403051542242967
 20
18.5238380792671045
 30
0.0
 10
-10.6763972005861376
 20
18.4203629008012193
 30
0.0
 42
-0.0488886242868366
 10
-10.5401353387622478
 20
18.1422471491073232
 30
0.0
 10
-10.4975489967937676
 20
18.028372790888799
 30
0.0
 42
-0.041069293617774
 10
-10.4266559241116923
 20
17.777859807047907
 30
0.0
 10
-10.4022189537733318
 20
17.653274948985139
 30
0.0
 42
-0.0291931341454205
 10
-10.3772318738558997
 20
17.4697495894405073
 30
0.0
 10
-10.3667776689324462
 20
17.3341586585330667
 30
0.0
 42
-0.0181533022284728
 10
-10.3620950723310639
 20
17.2190183423703829
 30
0.0
 10
-10.361457026607404
 20
17.0721257656177947
 30
0.0
 42
-0.0089886020306272
 10
-10.3622350860618813
 20
17.0150580577087744
 30
0.0
 10
-10.3672465933228253
 20
16.8565682621105744
 30
0.0
 42
-0.001622151017805
 10
-10.3676055403541874
 20
16.8462738862816295
 30
0.0
 10
-10.3740999943845864
 20
16.6758912988373602
 30
0.0
 10
-10.3765006579927501
 20
16.5495885279257173
 30
0.0
 10
-10.3745546376794344
 20
16.4247047014598415
 30
0.0
 10
-10.3666161315505292
 20
16.3073274667385597
 30
0.0
 10
-10.3503352205449133
 20
16.1825744464618602
 30
0.0
 10
-10.3231842114734782
 20
16.0407707192096645
 30
0.0
 10
-10.28468163947759
 20
15.8858982578246817
 30
0.0
 10
-10.2356948474179958
 20
15.7251895214725899
 30
0.0
 10
-10.1776657985579675
 20
15.5651951275487583
 30
0.0
 10
-10.1126086271910793
 20
15.4121009134235827
 30
0.0
 10
-10.0432433236989809
 20
15.2719229282023257
 30
0.0
 10
-9.9732563521663522
 20
15.1505808072137889
 30
0.0
 10
-9.9074953762866471
 20
15.0534976505122238
 30
0.0
 10
-9.8480220034306996
 20
14.9797747520709841
 30
0.0
 10
-9.7912788411105467
 20
14.9210425581874624
 30
0.0
 10
-9.734474931142266
 20
14.8718031692058297
 30
0.0
 10
-9.678142323776548
 20
14.8309758754722019
 30
0.0
 10
-9.6233204003994572
 20
14.7980029111381093
 30
0.0
 10
-9.5715580476125552
 20
14.7725565587229788
 30
0.0
 10
-9.5250115021786463
 20
14.754353672123333
 30
0.0
 10
-9.4865283183897091
 20
14.7429459583576268
 30
0.0
 10
-9.4736046725493175
 20
14.7403023564728919
 30
0.0
 10
-9.424631245760736
 20
14.7598824866918328
 30
0.0
 10
-9.3279175822572142
 20
14.8056905822975544
 30
0.0
 10
-9.1908618303224969
 20
14.8782148351196319
 30
0.0
 10
-9.0149306987168742
 20
14.9780531818236646
 30
0.0
 10
-8.79510394385564
 20
15.1079940458373052
 30
0.0
 42
-0.0051276367831454
 10
-8.7669064706482303
 20
15.1242738645840795
 30
0.0
 10
-8.5444610039925948
 20
15.2496789867182976
 30
0.0
 10
-8.3700328936718833
 20
15.3521206426534853
 30
0.0
 10
-8.2386971723700064
 20
15.4345522791527721
 30
0.0
 10
-8.1506693661246103
 20
15.4954047208370831
 30
0.0
 10
-8.1092257625513895
 20
15.5280268874368339
 30
0.0
 10
-8.105053366020897
 20
15.5405408939863996
 30
0.0
 10
-8.0956911440466115
 20
15.5795721656491075
 30
0.0
 10
-8.0881820335471559
 20
15.628984099753108
 30
0.0
 10
-8.0843380447788675
 20
15.6865347884336295
 30
0.0
 10
-8.0854825078417356
 20
15.7504984489296369
 30
0.0
 10
-8.0926736776999633
 20
15.8196975648366696
 30
0.0
 10
-8.1069142844407267
 20
15.8935108883942284
 30
0.0
 10
-8.1294062752037561
 20
15.9720180053962473
 30
0.0
 10
-8.1635154916665655
 20
16.0603849063589443
 30
0.0
 10
-8.2147114837098627
 20
16.1658771603992655
 30
0.0
 10
-8.284803357268725
 20
16.2871587161747904
 30
0.0
 10
-8.3715184017755462
 20
16.4173198237506845
 30
0.0
 10
-8.4715732946968281
 20
16.5502080939152343
 30
0.0
 10
-8.5811179798680399
 20
16.680459921347488
 30
0.0
 10
-8.695802432129291
 20
16.8032380958970826
 30
0.0
 10
-8.8106746320372835
 20
16.9140185320489529
 30
0.0
 10
-8.9199047576534056
 20
17.008433859269406
 30
0.0
 10
-9.0198035869090631
 20
17.0849100519353918
 30
0.0
 10
-9.1174860009390279
 20
17.1504736172716186
 30
0.0
 10
-9.2246655570238048
 20
17.2146008335323195
 30
0.0
 10
-9.3593258847973289
 20
17.2886439575808701
 30
0.0
 10
-9.486050173109895
 20
17.3552401148654205
 30
0.0
 42
-0.001622151017855
 10
-9.4951448376098302
 20
17.3600764455322931
 30
0.0
 10
-9.6349067804689597
 20
17.4349812507321609
 30
0.0
 42
-0.008988602030678
 10
-9.6847178949814108
 20
17.4628412854336013
 30
0.0
 10
-9.8116115752146733
 20
17.536840137615382
 30
0.0
 42
-0.0181533022283618
 10
-9.908984715710023
 20
17.5984655433088122
 30
0.0
 10
-10.0211828039369237
 20
17.6753146158025878
 30
0.0
 42
-0.0291931341455007
 10
-10.167626887582939
 20
17.7887167415500898
 30
0.0
 10
-10.2633020544229723
 20
17.8721722076860239
 30
0.0
 42
-0.0410692936176865
 10
-10.4448061260656182
 20
18.0588239015010785
 30
0.0
 10
-10.5221310421383158
 20
18.1526419346093029
 30
0.0
 42
-0.0488886242869595
 10
-10.6948554173863144
 20
18.4097060443633431
 30
0.0
 10
-10.7525135737797868
 20
18.5167895449508144
 30
0.0
 42
-0.0429925622449777
 10
-10.8606325343679444
 20
18.7669216029506991
 30
0.0
 10
-10.9001658218632471
 20
18.88539881012127
 30
0.0
 42
-0.0337029953327613
 10
-10.9540225552850714
 20
19.0922745649934562
 30
0.0
 10
-10.9779665701061404
 20
19.2186138355621772
 30
0.0
 42
-0.0260411737798922
 10
-11.0002451243414612
 20
19.382354567179366
 30
0.0
 10
-11.0111364604085082
 20
19.5130225914128168
 30
0.0
 42
-0.0200788387547516
 10
-11.01661594090357
 20
19.6403539897774273
 30
0.0
 10
-11.0169911921367785
 20
19.7718174579422517
 30
0.0
 42
-0.0154660042782203
 10
-11.0142349790288989
 20
19.8699644062995091
 30
0.0
 10
-11.0066307393484664
 20
19.9986900086621198
 30
0.0
 42
-0.0117859807363511
 10
-11.0004585828585917
 20
20.073265612164203
 30
0.0
 10
-10.9874114461847263
 20
20.1957200389912153
 30
0.0
 42
-0.008634623348153
 10
-10.980662274378254
 20
20.2501288048770967
 30
0.0
 10
-10.9647088346311392
 20
20.3627787464351151
 30
0.0
 42
-0.0055554242026081
 10
-10.9593746835225669
 20
20.3976489740844436
 30
0.0
 10
-10.9430515346223913
 20
20.4969611206400053
 30
0.0
 42
-0.0019609086917159
 10
-10.9409838692044374
 20
20.5092399702722723
 30
0.0
 10
-10.9267213911663106
 20
20.591955458726833
 30
0.0
 10
-10.9162987203232618
 20
20.6536505907529424
 30
0.0
 10
-10.9107586200599798
 20
20.6896554413713112
 30
0.0
 10
-10.9101807987122754
 20
20.6975528867945933
 30
0.0
 10
-10.913121756350094
 20
20.6784829936615715
 30
0.0
 10
-10.9164479549086124
 20
20.6443706365135959
 30
0.0
 10
-10.918044526399445
 20
20.6173372478125891
 30
0.0
 10
-10.9187772417091224
 20
20.616578780520431
 30
0.0
 10
-10.9203906434040974
 20
20.648812133259586
 30
0.0
 10
-10.9234921494560382
 20
20.7121078746211076
 30
0.0
 42
-0.0006239794955143
 10
-10.9236798541186033
 20
20.7160656943080923
 30
0.0
 10
-10.9276575967418026
 20
20.8022095395342568
 30
0.0
 42
-0.0020404389966971
 10
-10.9282024213906865
 20
20.8151548133393227
 30
0.0
 10
-10.9319575186056852
 20
20.9139748777376049
 30
0.0
 42
-0.0031239952660266
 10
-10.9325869079790792
 20
20.9338020670042795
 30
0.0
 10
-10.9353671082583119
 20
21.0428695439342697
 30
0.0
 42
-0.0041190619514328
 10
-10.9358181927836071
 20
21.0690212535177146
 30
0.0
 10
-10.9368712445995335
 20
21.1859073363390742
 30
0.0
 42
-0.005168406520297
 10
-10.9368276698415556
 20
21.2187258121528473
 30
0.0
 10
-10.9354013216665962
 20
21.3410016942252092
 30
0.0
 42
-0.0063780636011775
 10
-10.9344124157838145
 20
21.3814886752522177
 30
0.0
 10
-10.9297544160904501
 20
21.506725549935144
 30
0.0
 42
-0.0078572255617854
 10
-10.9271169227863272
 20
21.5565460867814558
 30
0.0
 10
-10.9184750200469907
 20
21.6823151474346183
 30
0.0
 42
-0.0097445706960606
 10
-10.913031553937806
 20
21.7439473749406282
 30
0.0
 10
-10.8996534966249641
 20
21.8678198149236245
 30
0.0
 42
-0.0122364927382302
 10
-10.8894240425184847
 20
21.9448335105778618
 30
0.0
 10
-10.8705575998219715
 20
22.0643804725158468
 30
0.0
 42
-0.0154890719274693
 10
-10.8522281029622576
 20
22.1609890377201033
 30
0.0
 10
-10.8272630621843007
 20
22.2734338791101827
 30
0.0
 42
-0.0200002938296145
 10
-10.7948139314067824
 20
22.3961678663070565
 30
0.0
 10
-10.7636212011654813
 20
22.497555736910865
 30
0.0
 42
-0.0279254890323219
 10
-10.7021478516980899
 20
22.6637389335390473
 30
0.0
 10
-10.6647001254381095
 20
22.7498657244262255
 30
0.0
 42
-0.0426362536807551
 10
-10.5362375123277801
 20
22.9876299899456491
 30
0.0
 10
-10.4925074834937249
 20
23.0542915921857876
 30
0.0
 42
-0.0702210162772961
 10
-10.1996636269465277
 20
23.3876471339701411
 30
0.0
 10
-10.1496239889830306
 20
23.4306394386329195
 30
0.0
 42
-0.1124146792509645
 10
-9.5262909587119164
 20
23.7598433812584808
 30
0.0
 10
-9.4699144050636193
 20
23.7749622794134758
 30
0.0
 42
-0.1322633124674521
 10
-8.6444825424061484
 20
23.7741466412859062
 30
0.0
 10
-8.5817417665177018
 20
23.7571880240026836
 30
0.0
 42
-0.0983821973859692
 10
-8.0273532705279873
 20
23.4824330497164837
 30
0.0
 10
-7.9582209658439567
 20
23.4291928080647942
 30
0.0
 42
-0.0590939132574038
 10
-7.6908882738571531
 20
23.1677262890261062
 30
0.0
 10
-7.61533713382223
 20
23.0740003140755299
 30
0.0
 42
-0.0352222814701276
 10
-7.4877293526653732
 20
22.8906514005273358
 30
0.0
 10
-7.4057078726872092
 20
22.7530741767743443
 30
0.0
 42
-0.0188652955031942
 10
-7.3483079427526796
 20
22.6479752178281046
 30
0.0
 10
-7.2595724449075689
 20
22.4698410796084609
 30
0.0
 42
-0.0095466484106222
 10
-7.2335858759505625
 20
22.4150783142489693
 30
0.0
 10
-7.1378010401865062
 20
22.2028574934538021
 30
0.0
 42
-0.0044258943527608
 10
-7.1264667467665088
 20
22.1771405382199944
 30
0.0
 10
-7.0232966886458001
 20
21.9373228257708668
 30
0.0
 42
-0.0011009946957761
 10
-7.020547981613781
 20
21.9308945293392092
 30
0.0
 10
-6.909656816698714
 20
21.6699697161576488
 30
0.0
 10
-6.7987818181139659
 20
21.4131930664119317
 30
0.0
 10
-6.6836296343244541
 20
21.1566757579574265
 30
0.0
 10
-6.5665597664644011
 20
20.9112069024867857
 30
0.0
 10
-6.4491315313862145
 20
20.6842905860823016
 30
0.0
 10
-6.3312205137401953
 20
20.4788096503562791
 30
0.0
 10
-6.2090233423558132
 20
20.2882465143177448
 30
0.0
 10
-6.0793250402155223
 20
20.1058608668128862
 30
0.0
 10
-5.9412775501146307
 20
19.9293714398823347
 30
0.0
 10
-5.7941410926460222
 20
19.7569457000557485
 30
0.0
 10
-5.6372329819634253
 20
19.5869911864757817
 30
0.0
 10
-5.4699921803445974
 20
19.4181261242154868
 30
0.0
 10
-5.2920222811021347
 20
19.2491338232657476
 30
0.0
 10
-5.1031100374725682
 20
19.0789088655252677
 30
0.0
 10
-4.9028498996555285
 20
18.9060806836623279
 30
0.0
 10
-4.6847925930321566
 20
18.7239084898654333
 30
0.0
 10
-4.464844487439926
 20
18.5437418436349155
 30
0.0
 10
-4.2346920270784452
 20
18.3562225405483055
 30
0.0
 42
-0.0008966243321331
 10
-4.2302845987893196
 20
18.3526182097403705
 30
0.0
 10
-3.9959446425748482
 20
18.1602761002014539
 30
0.0
 42
-0.0024800080146177
 10
-3.9838216336330325
 20
18.1502246967911738
 30
0.0
 10
-3.7502820052715791
 20
17.9546300733133002
 30
0.0
 42
-0.004047747918102
 10
-3.7307114829196975
 20
17.9379679167914574
 30
0.0
 10
-3.4994588956339712
 20
17.7378300709351855
 30
0.0
 42
-0.0056061518647432
 10
-3.4728046117333524
 20
17.7142342476587764
 30
0.0
 10
-3.2453257787460572
 20
17.5082624709846719
 30
0.0
 42
-0.0071565750263608
 10
-3.2120805638540713
 20
17.4772830560923822
 30
0.0
 10
-2.9898621983879252
 20
17.2641866401610251
 30
0.0
 42
-0.0086937847660887
 10
-2.9506900505408975
 20
17.2252927705430601
 30
0.0
 10
-2.7352188658186023
 20
17.0037810069149948
 30
0.0
 42
-0.0089045544654778
 10
-2.6965238280174644
 20
16.9625572022108386
 30
0.0
 10
-2.4879997112016312
 20
16.7323232983032248
 30
0.0
 42
-0.0029758996191362
 10
-2.4753979191679054
 20
16.7182419735226802
 30
0.0
 10
-2.2776399203460684
 20
16.4946015150221434
 30
0.0
 10
-2.0990299222132478
 20
16.2999725636806083
 30
0.0
 10
-1.9396392898856618
 20
16.1420815839984719
 30
0.0
 10
-1.793520659423578
 20
16.017496578129947
 30
0.0
 10
-1.6519941254526316
 20
15.9189515614946053
 30
0.0
 10
-1.5009091567011055
 20
15.8376523121796247
 30
0.0
 10
-1.3204027946743722
 20
15.7674946685673056
 30
0.0
 10
-1.0872269870100695
 20
15.7083966258001588
 30
0.0
 10
-0.7739943030615706
 20
15.6659604146935969
 30
0.0
 10
-0.3746539997930469
 20
15.648514828223167
 30
0.0
 10
0.0895629781462901
 20
15.6609873128238881
 30
0.0
 10
0.5937854107566523
 20
15.7040500187363499
 30
0.0
 10
1.1164282427811969
 20
15.7759613910320518
 30
0.0
 10
1.6375292698977688
 20
15.8736787511191118
 30
0.0
 10
2.1375321466655421
 20
15.9931084302556847
 30
0.0
 10
2.5961940036439373
 20
16.1287774906024843
 30
0.0
 10
2.9913278436335631
 20
16.272741688465171
 30
0.0
 10
3.3035828411293764
 20
16.4147600280502992
 30
0.0
 10
3.5333192705580743
 20
16.5472064669839334
 30
0.0
 10
3.6966233821803556
 20
16.6666804387012739
 30
0.0
 10
3.8089410290125869
 20
16.7713439384126879
 30
0.0
 10
3.8864495980479035
 20
16.8640401444982011
 30
0.0
 10
3.9435056713896515
 20
16.9526050264234378
 30
0.0
 10
3.9900202733278718
 20
17.047675418158061
 30
0.0
 10
4.0308798927910772
 20
17.1594064350903572
 30
0.0
 10
4.0674995251368102
 20
17.2951297707594698
 30
0.0
 10
4.09949241875524
 20
17.4555987322079567
 30
0.0
 10
4.1254645943492392
 20
17.6298892469305137
 30
0.0
 10
4.1444695750751777
 20
17.8088457424489057
 30
0.0
 10
4.1571985061337742
 20
17.9927631415653728
 30
0.0
 10
4.1645562437783923
 20
18.1833836207371853
 30
0.0
 10
4.1677048014072469
 20
18.395210450708074
 30
0.0
 10
4.1671748996950484
 20
18.5973168444377386
 30
0.0
 10
4.1649213444870625
 20
18.8096340347600339
 30
0.0
 10
4.162424801950138
 20
19.0330965946190211
 30
0.0
 42
-0.0018091281640351
 10
4.1623380592159656
 20
19.0445841933692321
 30
0.0
 10
4.1614575852620348
 20
19.2684744723657424
 30
0.0
 42
-0.003876026972854
 10
4.1615515901765407
 20
19.2930866943544324
 30
0.0
 10
4.1641284341203431
 20
19.5157668114650669
 30
0.0
 42
-0.0063812348494847
 10
4.1651143200181231
 20
19.5562740070771888
 30
0.0
 10
4.1731201025203859
 20
19.7719873838950484
 30
0.0
 42
-0.009946508908999
 10
4.1767172043962901
 20
19.8350389431677421
 30
0.0
 10
4.1921825943876101
 20
20.0358032059575883
 30
0.0
 42
-0.0156380343869927
 10
4.2028989314907683
 20
20.1345003718727149
 30
0.0
 10
4.2278547720854576
 20
20.3123265811313694
 30
0.0
 42
-0.02599671239958
 10
4.259238685099314
 20
20.4742814211676425
 30
0.0
 10
4.2957158194116474
 20
20.6211806373919266
 30
0.0
 42
-0.0476541402723389
 10
4.3960108609719466
 20
20.9059533182238013
 30
0.0
 10
4.4460401321162095
 20
21.013936601910526
 30
0.0
 42
-0.0971302075563708
 10
4.8047876795167559
 20
21.5085438186778042
 30
0.0
 10
4.8703999306072561
 20
21.5696222303237839
 30
0.0
 42
-0.170486604839844
 10
5.8344237270798525
 20
21.9907972272882439
 30
0.0
 10
5.917649801230894
 20
21.9969818273903677
 30
0.0
 42
-0.1454905229534087
 10
6.8015769192765028
 20
21.8041586104377636
 30
0.0
 10
6.9044476596023543
 20
21.7474604594927605
 30
0.0
 42
-0.0731781570962816
 10
7.2724504289816911
 20
21.4678026335507219
 30
0.0
 10
7.3967601519399864
 20
21.3408479110162865
 30
0.0
 42
-0.0344009678754026
 10
7.5383355212638348
 20
21.174828663698932
 30
0.0
 10
7.6816324167712793
 20
20.9812861646174404
 30
0.0
 42
-0.0183469892641087
 10
7.7474538039358753
 20
20.885205730161374
 30
0.0
 10
7.9036132759841564
 20
20.6382958167989123
 30
0.0
 42
-0.0119081450290676
 10
7.942493295055538
 20
20.5734528425550209
 30
0.0
 10
8.1052696459881588
 20
20.2867108180856341
 30
0.0
 42
-0.0089676330413981
 10
8.1324869639036823
 20
20.2366971322657037
 30
0.0
 10
8.2956344960640536
 20
19.9236582998633516
 30
0.0
 42
-0.0076770478745239
 10
8.3174973515834054
 20
19.8800896733929804
 30
0.0
 10
8.474770367315017
 20
19.5542893362316725
 30
0.0
 42
-0.0074307508818674
 10
8.4946482290134497
 20
19.5114982823911767
 30
0.0
 10
8.6398010306597399
 20
19.1864717436449972
 30
0.0
 42
-0.0081475653551094
 10
8.6601240550830809
 20
19.1388971638200474
 30
0.0
 10
8.7869109449875396
 20
18.8281797266629773
 30
0.0
 42
-0.0102005142373275
 10
8.8101516329987817
 20
18.7677266592053194
 30
0.0
 10
8.912326913504856
 20
18.4848536268113683
 30
0.0
 42
-0.0148596749155015
 10
8.9417252444418214
 20
18.3952131438896025
 30
0.0
 10
9.0130770166036172
 20
18.1536317491575439
 30
0.0
 42
-0.0243554732192716
 10
9.0495904122029778
 20
18.0034409143614091
 30
0.0
 10
9.0870614135305061
 20
17.8083782629757188
 30
0.0
 42
-0.0376472352616906
 10
9.1143416179360361
 20
17.5712205244765869
 30
0.0
 10
9.1205535804952973
 20
17.4131058021869158
 30
0.0
 42
-0.0507497312499333
 10
9.1005909984495332
 20
17.092293357236283
 30
0.0
 10
9.0787597004446923
 20
16.9600078266338805
 30
0.0
 42
-0.0536072537289185
 10
8.9880039184216276
 20
16.6329351461667976
 30
0.0
 10
8.9413451380567324
 20
16.5153600698428029
 30
0.0
 42
-0.0404887725840922
 10
8.8276869534078699
 20
16.285212430280211
 30
0.0
 10
8.7594164688870819
 20
16.1712290708258841
 30
0.0
 42
-0.0199802938772314
 10
8.6899558370266679
 20
16.0651177729066994
 30
0.0
 10
8.6032894265541131
 20
15.9436073929131901
 30
0.0
 42
-0.0022100217773938
 10
8.595090051242483
 20
15.932218304966753
 30
0.0
 10
8.5110876301051093
 20
15.8166183757193686
 30
0.0
 10
8.4422437963781647
 20
15.7138339765811246
 30
0.0
 10
8.3458085491615606
 20
15.5479641764477456
 30
0.0
 10
8.6752007475843698
 20
15.3968947551921964
 30
0.0
 42
-0.0468295192296504
 10
8.9321649874658231
 20
15.2485363821245201
 30
0.0
 10
9.2276910432195223
 20
15.0388090811097577
 30
0.0
 10
9.3231208802473731
 20
15.2052593550862944
 30
0.0
 10
9.3777128641502685
 20
15.316272063556692
 30
0.0
 10
9.4358241289855727
 20
15.4468202588648857
 30
0.0
 42
-0.0022100217774138
 10
9.4415876808173529
 20
15.4596156701532497
 30
0.0
 10
9.503485551478974
 20
15.5954261732740314
 30
0.0
 42
-0.0199802938772172
 10
9.5606503151752609
 20
15.7086364939875853
 30
0.0
 10
9.62522755781103
 20
15.8247521476384456
 30
0.0
 42
-0.0404887725840869
 10
9.7677121679688224
 20
16.0382568426736327
 30
0.0
 10
9.8462057807348344
 20
16.1374520699412223
 30
0.0
 42
-0.0536072537288786
 10
10.0840811398914738
 20
16.3795852229469041
 30
0.0
 10
10.1877281209438308
 20
16.4646344469178949
 30
0.0
 42
-0.0507497312499717
 10
10.4555785570985584
 20
16.6423287725701421
 30
0.0
 10
10.5956159045933731
 20
16.7160064163312931
 30
0.0
 42
-0.0376472352617019
 10
10.8146406330405256
 20
16.8109599355452524
 30
0.0
 10
11.0023053451338484
 20
16.8760404221832054
 30
0.0
 42
-0.0243554732192488
 10
11.1506311212824318
 20
16.9195143114137565
 30
0.0
 10
11.3955226322829617
 20
16.9785125614826562
 30
0.0
 42
-0.0148596749155234
 10
11.4878527331693334
 20
16.9978731015233038
 30
0.0
 10
11.7839156055210594
 20
17.0508232291632176
 30
0.0
 42
-0.0102005142373226
 10
11.8478898416816758
 20
17.0609227366728682
 30
0.0
 10
12.1803724806107283
 20
17.1064807877273104
 30
0.0
 42
-0.0081475653551017
 10
12.2317347875251272
 20
17.1126678222074382
 30
0.0
 10
12.5857924278065951
 20
17.149475077924361
 30
0.0
 42
-0.007430750881874
 10
12.6327894983364359
 20
17.1536558716408685
 30
0.0
 10
12.9935773747454562
 20
17.1803536132681351
 30
0.0
 42
-0.0076770478745261
 10
13.0422403398364821
 20
17.183204138224287
 30
0.0
 10
13.3949136871481187
 20
17.1984336470098249
 30
0.0
 42
-0.008967633041387
 10
13.4518354685627628
 20
17.1998696011820833
 30
0.0
 10
13.7815495215521366
 20
17.2022721583738267
 30
0.0
 42
-0.0119081450290872
 10
13.8571451940401005
 20
17.2010225612803289
 30
0.0
 10
14.1490551874823467
 20
17.1892394481261626
 30
0.0
 42
-0.0183469892640971
 10
14.2651739781101696
 20
17.1802766719573263
 30
0.0
 10
14.5044351467803949
 20
17.1529491697051775
 30
0.0
 42
-0.0344009678753912
 10
14.7189997171362545
 20
17.113350926979269
 30
0.0
 10
14.8911005934606209
 20
17.0691729102272056
 30
0.0
 42
-0.0731781570963039
 10
15.3172927597833599
 20
16.8903020762526523
 30
0.0
 10
15.4178301690122481
 20
16.8295624772968289
 30
0.0
 42
-0.1454905229533758
 10
16.0267835323553456
 20
16.1604707464518356
 30
0.0
 10
16.0630405486301839
 20
16.0853025519287307
 30
0.0
 42
-0.1704866048398839
 10
16.1803042000564545
 20
15.0398459558482944
 30
0.0
 10
16.1602148694934726
 20
14.952484873781426
 30
0.0
 42
-0.097130207556336
 10
15.9112462285782623
 20
14.3944967758037414
 30
0.0
 10
15.8427445972936454
 20
14.2971785142166219
 30
0.0
 42
-0.0476541402723645
 10
15.646271742169489
 20
14.0679341199357246
 30
0.0
 10
15.5372918562794098
 20
13.9628943868518469
 30
0.0
 42
-0.0259967123995742
 10
15.4127268070491166
 20
13.8547377008935744
 30
0.0
 10
15.2712027126697762
 20
13.744212204336467
 30
0.0
 42
-0.0156380343869874
 10
15.1910866282573487
 20
13.6855830012120681
 30
0.0
 10
15.024952371504952
 20
13.5718074492052132
 30
0.0
 42
-0.0099465089090159
 10
14.9721466703644364
 20
13.5371664879642832
 30
0.0
 10
14.7893362973551632
 20
13.4223765885312183
 30
0.0
 42
-0.0063812348494624
 10
14.7547489798680136
 20
13.4012691884925239
 30
0.0
 10
14.5631907635044087
 20
13.2876975176202841
 30
0.0
 42
-0.0038760269728654
 10
14.541922956475819
 20
13.2753099959818535
 30
0.0
 10
14.3475880502274862
 20
13.1641273692950911
 30
0.0
 42
-0.0018091281640311
 10
14.3375961265142617
 20
13.1584586913313544
 30
0.0
 10
14.1416581432939665
 20
13.048233202150282
 30
0.0
 10
13.9457345026254131
 20
12.9377977177469852
 30
0.0
 10
13.7600364899790719
 20
12.830901073674152
 30
0.0
 10
13.6006573842931857
 20
12.7354480871603819
 30
0.0
 10
13.4392540756711583
 20
12.6337658598598672
 30
0.0
 10
13.2863414013677357
 20
12.5307835826419414
 30
0.0
 10
13.1408630204393404
 20
12.4248465387755012
 30
0.0
 10
13.0029090948480928
 20
12.3152087175583951
 30
0.0
 10
12.8799353445240143
 20
12.2072675782200086
 30
0.0
 10
12.7807053041211276
 20
12.1076923784968535
 30
0.0
 10
12.7043732147985367
 20
12.0164414015864445
 30
0.0
 10
12.6452971413777533
 20
11.9286233787937483
 30
0.0
 10
12.5971257404182211
 20
11.8349289288770088
 30
0.0
 10
12.5556027556314262
 20
11.7214564360388103
 30
0.0
 10
12.5211203294484363
 20
11.5718547507329426
 30
0.0
 10
12.4993048906613637
 20
11.3706922556670769
 30
0.0
 10
12.4994711246183812
 20
11.1055114521400604
 30
0.0
 10
12.5326071334822728
 20
10.7640815220576833
 30
0.0
 10
12.605497400892574
 20
10.3499034798003358
 30
0.0
 10
12.7173354766139113
 20
9.8848561297365585
 30
0.0
 10
12.8639077788995735
 20
9.3921260969225138
 30
0.0
 10
13.0398325762319445
 20
8.8919806894571884
 30
0.0
 10
13.2388769170148919
 20
8.4034030336708447
 30
0.0
 10
13.4536947360443122
 20
7.945202244915837
 30
0.0
 10
13.6750017365014003
 20
7.5369423068520156
 30
0.0
 10
13.8897802092029963
 20
7.1998262527016728
 30
0.0
 10
14.0831473880359113
 20
6.9497768966599303
 30
0.0
 10
14.2509156982183356
 20
6.777389745058283
 30
0.0
 10
14.4019271808695777
 20
6.6561454718046242
 30
0.0
 10
14.5478768804606915
 20
6.5659516753933325
 30
0.0
 10
14.7039826352688152
 20
6.492658609982545
 30
0.0
 10
14.8849357305125665
 20
6.428408666970487
 30
0.0
 10
15.1013686461096057
 20
6.3693178200905756
 30
0.0
 10
15.3592272613496732
 20
6.311951500008437
 30
0.0
 10
15.6517845791360344
 20
6.2525082784774177
 30
0.0
 42
-0.0029758996191318
 10
15.6702802601317615
 20
6.2486354688332924
 30
0.0
 10
15.9739307281361391
 20
6.1831652383228821
 30
0.0
 42
-0.0089045544654767
 10
16.0289791091511518
 20
6.170266254938781
 30
0.0
 10
16.3285495160512824
 20
6.0944186169997643
 30
0.0
 42
-0.0086937847660956
 10
16.381818669115475
 20
6.079941476652432
 30
0.0
 10
16.6774747615005339
 20
5.9940429349369673
 30
0.0
 42
-0.0071565750263748
 10
16.720926329237713
 20
5.9807414417323415
 30
0.0
 10
17.0130425367937335
 20
5.8867248818791502
 30
0.0
 42
-0.0056061518647147
 10
17.0468042611244464
 20
5.8754395065397889
 30
0.0
 10
17.3357550135375504
 20
5.7752378141876228
 30
0.0
 42
-0.0040477479181334
 10
17.3599701255434269
 20
5.7666203229264141
 30
0.0
 10
17.6461298524996408
 20
5.6621663837139344
 30
0.0
 42
-0.002480008014593
 10
17.6608961276673853
 20
5.6566932517052253
 30
0.0
 10
17.944639258852817
 20
5.5499199512712245
 30
0.0
 42
-0.0008966243321515
 10
17.9499644150408102
 20
5.5479051718113972
 30
0.0
 10
18.2316653801415356
 20
5.4407453957945968
 30
0.0
 10
18.5074703540964549
 20
5.3367335799773095
 30
0.0
 10
18.7602344717435017
 20
5.2441925519782124
 30
0.0
 10
19.0100381366352025
 20
5.1571762761947362
 30
0.0
 10
19.2519133962122737
 20
5.0786859529955741
 30
0.0
 10
19.4872499714989971
 20
5.0090556496178174
 30
0.0
 10
19.7171118060380195
 20
4.9486533979966403
 30
0.0
 10
19.9427507876270482
 20
4.8977442448757493
 30
0.0
 10
20.1656440873176166
 20
4.8565332047983567
 30
0.0
 10
20.3875121595893063
 20
4.8252252849075781
 30
0.0
 10
20.6103119146842175
 20
4.8040960841788269
 30
0.0
 10
20.8364430172107404
 20
4.7935517975086093
 30
0.0
 10
21.0733502363658118
 20
4.7941783287040742
 30
0.0
 10
21.3285796484443892
 20
4.8059406522070383
 30
0.0
 10
21.5996968470497706
 20
4.8272896003578474
 30
0.0
 10
21.8794234445767728
 20
4.8558235381221557
 30
0.0
 10
22.1661531353893793
 20
4.8892566160317834
 30
0.0
 10
22.4386491447979068
 20
4.9226191382951505
 30
0.0
 42
-0.0011009946957945
 10
22.4455905663268993
 20
4.9234528363936869
 30
0.0
 10
22.7048638266456919
 20
4.9540138013757975
 30
0.0
 42
-0.0044258943527618
 10
22.7328025098961604
 20
4.9570564929570562
 30
0.0
 10
22.9644835497987714
 20
4.9802148022856123
 30
0.0
 42
-0.0095466484106209
 10
23.0249027802600637
 20
4.9850911560913875
 30
0.0
 10
23.2235392181621023
 20
4.997311029849886
 30
0.0
 42
-0.0188652955031893
 10
23.3432575514880796
 20
5.000150711824249
 30
0.0
 10
23.5034136622293772
 20
4.9979066383836432
 30
0.0
 42
-0.0352222814701284
 10
23.726002369696829
 20
4.9790695149553521
 30
0.0
 10
23.8449470150159613
 20
4.9605032958755082
 30
0.0
 42
-0.0590939132574115
 10
24.205050008735995
 20
4.8597196528721716
 30
0.0
 10
24.2857235628519845
 20
4.8264694416194835
 30
0.0
 42
-0.0983821973858814
 10
24.8008625983944171
 20
4.4837324076700149
 30
0.0
 10
24.8469195797189286
 20
4.437876610539039
 30
0.0
 42
-0.1322633124675568
 10
25.2603418743868531
 20
3.7234394674478923
 30
0.0
 10
25.2754368013315514
 20
3.6670564907331418
 30
0.0
 42
-0.112414679250859
 10
25.3020043391274214
 20
2.962632280188275
 30
0.0
 10
25.2897917301039854
 20
2.8978005301843446
 30
0.0
 42
-0.0702210162774068
 10
25.1475192906998188
 20
2.4775125401794225
 30
0.0
 10
25.1116536641198991
 20
2.4063104231808587
 30
0.0
 42
-0.042636253680695
 10
24.9699750766232889
 20
2.1761764040313683
 30
0.0
 10
24.9141109508985608
 20
2.1006823263326879
 30
0.0
 42
-0.0279254890323689
 10
24.8009287556699611
 20
1.964353245723842
 30
0.0
 10
24.728720649212093
 20
1.8866456136195886
 30
0.0
 42
-0.0200002938295927
 10
24.6386544637806963
 20
1.7971768484372288
 30
0.0
 10
24.5537568950013565
 20
1.7193340682219294
 30
0.0
 42
-0.0154890719274823
 10
24.479256171741099
 20
1.6551559757006673
 30
0.0
 10
24.3851586871058146
 20
1.579043676077486
 30
0.0
 42
-0.0122364927381846
 10
24.3235775972834034
 20
1.5316778611274522
 30
0.0
 10
24.2229899460857894
 20
1.4581559036497183
 30
0.0
 42
-0.0097445706961198
 10
24.1723366044280432
 20
1.4226256099613142
 30
0.0
 10
24.0677383542619481
 20
1.3522569723254669
 30
0.0
 42
-0.0078572255617569
 10
24.0259112503750707
 20
1.3250625676987242
 30
0.0
 10
23.9197819352557701
 20
1.258410184291975
 30
0.0
 42
-0.0063780636011886
 10
23.8852136341051846
 20
1.2373102761619978
 30
0.0
 10
23.7800327880478619
 20
1.1749370813716808
 30
0.0
 42
-0.0051684065202759
 10
23.7516329416587268
 20
1.1584901066174549
 30
0.0
 10
23.6498800986786364
 20
1.100959034830872
 30
0.0
 42
-0.0041190619514595
 10
23.6270065115642041
 20
1.0882738306972648
 30
0.0
 10
23.5311612056765256
 20
1.0361478163017033
 30
0.0
 42
-0.0031239952660316
 10
23.5136756613992191
 20
1.0267792888545921
 30
0.0
 10
23.4262174266192034
 20
0.9806212662372964
 30
0.0
 42
-0.0020404389966638
 10
23.4147340783208193
 20
0.9746204613213947
 30
0.0
 10
23.3381424486636746
 20
0.9349933648697508
 30
0.0
 42
-0.0006239794955344
 10
23.3346210239397465
 20
0.933177012032373
 30
0.0
 10
23.2711019401939296
 20
0.9005141274783561
 30
0.0
 10
23.2268334326360133
 20
0.8774425718419039
 30
0.0
 10
23.2071832652322598
 20
0.8665672295418396
 30
0.0
 10
23.2134844664574587
 20
0.8693626495944926
 30
0.0
 10
23.2390477601885692
 20
0.8839812008701777
 30
0.0
 10
23.2668160780660003
 20
0.9015746864683862
 30
0.0
 10
23.278689131605077
 20
0.9092508607558472
 30
0.0
 10
23.2659064455464204
 20
0.8983335628921871
 30
0.0
 10
23.2282024431858929
 20
0.8670026519499743
 30
0.0
 10
23.1676781250354225
 20
0.8165947862000422
 30
0.0
 42
-0.0019609086916903
 10
23.1580781620337319
 20
0.8086647106055169
 30
0.0
 10
23.0802328946623447
 20
0.744872375710468
 30
0.0
 42
-0.0055554242026735
 10
23.0527014672362469
 20
0.7228177515178595
 30
0.0
 10
22.9631204759857184
 20
0.6526766966400608
 30
0.0
 42
-0.0086346233481005
 10
22.9193756884434912
 20
0.619627359458464
 30
0.0
 10
22.8198506123423641
 20
0.5471009942387468
 30
0.0
 42
-0.0117859807363984
 10
22.7583523234516889
 20
0.5044679481711662
 30
0.0
 10
22.6506748015284103
 20
0.4335196822500187
 30
0.0
 42
-0.0154660042781828
 10
22.5670551575012688
 20
0.3820592575019452
 30
0.0
 10
22.4530168287843992
 20
0.316652500520231
 30
0.0
 42
-0.0200788387547606
 10
22.3400048628536467
 20
0.2577321706462568
 30
0.0
 10
22.2213973663716473
 20
0.2018303322446613
 30
0.0
 42
-0.0260411737799118
 10
22.0684544560391345
 20
0.1392537603634845
 30
0.0
 10
21.9470694308204912
 20
0.096820250182752
 30
0.0
 42
-0.0337029953327477
 10
21.7409814049632644
 20
0.040023672054829
 30
0.0
 10
21.6186104900364739
 20
0.0150218997362792
 30
0.0
 42
-0.0429925622450047
 10
21.3479302932134374
 20
-0.01641036276429
 30
0.0
 10
21.2263641831817864
 20
-0.0200186848808137
 30
0.0
 42
-0.0488886242869191
 10
20.9173779461098093
 20
0.0010329570546517
 30
0.0
 10
20.7974666880686669
 20
0.0210892821642581
 30
0.0
 42
-0.041069293617702
 10
20.5450695437440203
 20
0.0849505721903456
 30
0.0
 10
20.4249574065655963
 20
0.1260799641170181
 30
0.0
 42
-0.0291931341454894
 10
20.2535262430021525
 20
0.1962031979146961
 30
0.0
 10
20.1308739498518037
 20
0.2549450563283031
 30
0.0
 42
-0.0181533022283993
 10
20.0288182127548851
 20
0.3084599667970258
 30
0.0
 10
19.9012864867979431
 20
0.3813536913678384
 30
0.0
 42
-0.0089886020306631
 10
19.8522534317400385
 20
0.4105613645757142
 30
0.0
 10
19.7175029961418602
 20
0.4941463549740988
 30
0.0
 42
-0.001622151017843
 10
19.7087672786733492
 20
0.4996044001363646
 30
0.0
 10
19.5644588565993018
 20
0.5904200560325741
 30
0.0
 10
19.4562777802258893
 20
0.6556504771587726
 30
0.0
 10
19.3471522038277186
 20
0.7164070873642174
 30
0.0
 10
19.241531283668877
 20
0.768220756749038
 30
0.0
 10
19.1253515434075041
 20
0.8164975843598299
 30
0.0
 10
18.9889704087199789
 20
0.8638859843917359
 30
0.0
 10
18.8355956368160236
 20
0.9079780096247703
 30
0.0
 10
18.6719243924953275
 20
0.9459085714272852
 30
0.0
 10
18.5043506584640625
 20
0.9756511379189199
 30
0.0
 10
18.3392385941758818
 20
0.9958570818795032
 30
0.0
 10
18.1831582461769585
 20
1.0058739595247239
 30
0.0
 10
18.0430794010855493
 20
1.0059345247377749
 30
0.0
 10
17.9261224331623339
 20
0.9975254273990721
 30
0.0
 10
17.8325398438436906
 20
0.9828814248776965
 30
0.0
 10
17.753304690760487
 20
0.9631065017591283
 30
0.0
 10
17.6822601740515637
 20
0.938532567183195
 30
0.0
 10
17.618736396827515
 20
0.9101607450098506
 30
0.0
 10
17.5627700103874389
 20
0.8791700488479286
 30
0.0
 10
17.5148516463690527
 20
0.8470657125825269
 30
0.0
 10
17.4758142114345247
 20
0.8158566650781154
 30
0.0
 10
17.44669324961977
 20
0.7882331071811564
 30
0.0
 10
17.4379420003099597
 20
0.7783627025162865
 30
0.0
 10
17.4304121770946807
 20
0.726160405697506
 30
0.0
 10
17.4217263198364662
 20
0.6194998684076616
 30
0.0
 10
17.4160062892035086
 20
0.4645439790861765
 30
0.0
 10
17.414503267918235
 20
0.2622639764472083
 30
0.0
 10
17.4171219797131442
 20
0.0069179902988701
 30
0.0
 42
-0.005127636783154
 10
17.4171219797131513
 20
-0.0256416471944198
 30
0.0
 10
17.414503267918235
 20
-0.2809876333424803
 30
0.0
 10
17.4160062892035086
 20
-0.4832676359815089
 30
0.0
 10
17.4217263198364662
 20
-0.6382235253029371
 30
0.0
 10
17.4304121770946807
 20
-0.744884062592849
 30
0.0
 10
17.4379420003099597
 20
-0.797086359411594
 30
0.0
 10
17.4466932496198126
 20
-0.8069567640764959
 30
0.0
 10
17.4758142114344395
 20
-0.8345803219733199
 30
0.0
 10
17.5148516463689958
 20
-0.8657893694777918
 30
0.0
 10
17.5627700103874673
 20
-0.8978937057431935
 30
0.0
 10
17.6187363968275577
 20
-0.9288844019051936
 30
0.0
 10
17.6822601740514642
 20
-0.9572562240784031
 30
0.0
 10
17.7533046907605012
 20
-0.9818301586544038
 30
0.0
 10
17.8325398438437475
 20
-1.001605081773036
 30
0.0
 10
17.9261224331623623
 20
-1.0162490842943406
 30
0.0
 10
18.0430794010855351
 20
-1.0246581816331108
 30
0.0
 10
18.1831582461768733
 20
-1.0245976164200208
 30
0.0
 10
18.3392385941759102
 20
-1.0145807387747823
 30
0.0
 10
18.5043506584640909
 20
-0.9943747948142558
 30
0.0
 10
18.6719243924953417
 20
-0.9646322283225572
 30
0.0
 10
18.8355956368160236
 20
-0.9267016665200458
 30
0.0
 10
18.9889704087200073
 20
-0.8826096412870044
 30
0.0
 10
19.1253515434074757
 20
-0.83522124125518
 30
0.0
 10
19.2415312836689338
 20
-0.7869444136443136
 30
0.0
 10
19.3471522038276902
 20
-0.7351307442594859
 30
0.0
 10
19.4562777802257756
 20
-0.6743741340540943
 30
0.0
 10
19.5877311705141892
 20
-0.5947764313445774
 30
0.0
 10
19.7087672786734487
 20
-0.518328057031713
 30
0.0
 42
-0.0016221510178169
 10
19.7175029961418176
 20
-0.5128700118693479
 30
0.0
 10
19.8522534317399959
 20
-0.4292850214710775
 30
0.0
 42
-0.0089886020306609
 10
19.9012864867978863
 20
-0.4000773482631643
 30
0.0
 10
20.0288182127548282
 20
-0.3271836236922709
 30
0.0
 42
-0.0181533022284327
 10
20.1308739498519316
 20
-0.2736687132236377
 30
0.0
 10
20.253526243002284
 20
-0.2149268548097076
 30
0.0
 42
-0.0291931341454408
 10
20.42495740656544
 20
-0.1448036210124619
 30
0.0
 10
20.545069543743864
 20
-0.1036742290856871
 30
0.0
 42
-0.0410692936177576
 10
20.7974666880688517
 20
-0.0398129390602506
 30
0.0
 10
20.917377946109994
 20
-0.0197566139510492
 30
0.0
 42
-0.0488886242868737
 10
21.2263641831816869
 20
0.0012950279905466
 30
0.0
 10
21.3479302932133379
 20
-0.0023132941281006
 30
0.0
 42
-0.0429925622450361
 10
21.6186104900365734
 20
-0.0337455566309002
 30
0.0
 10
21.7409814049633638
 20
-0.0587473289493516
 30
0.0
 42
-0.0337029953327317
 10
21.9470694308204912
 20
-0.1155439070780158
 30
0.0
 10
22.0684544560391345
 20
-0.1579774172587705
 30
0.0
 42
-0.0260411737799365
 10
22.2213973663717859
 20
-0.22055398914012
 30
0.0
 10
22.3400048628537888
 20
-0.2764558275416462
 30
0.0
 42
-0.0200788387547359
 10
22.4530168287843992
 20
-0.3353761574156691
 30
0.0
 10
22.5670551575012723
 20
-0.4007829143971797
 30
0.0
 42
-0.0154660042781499
 10
22.6506748015282362
 20
-0.4522433391453118
 30
0.0
 10
22.7583523234515184
 20
-0.5231916050663763
 30
0.0
 42
-0.0117859807364206
 10
22.8198506123423073
 20
-0.5658246511339604
 30
0.0
 10
22.9193756884434379
 20
-0.6383510163537025
 30
0.0
 42
-0.0086346233481125
 10
22.9631204759857184
 20
-0.6714003535353985
 30
0.0
 10
23.0527014672362469
 20
-0.7415414084132337
 30
0.0
 42
-0.0055554242026873
 10
23.0802328946624158
 20
-0.7635960326057531
 30
0.0
 10
23.158078162033803
 20
-0.8273883675009515
 30
0.0
 42
-0.0019609086916758
 10
23.1676781250354225
 20
-0.8353184430953411
 30
0.0
 10
23.2321806003044316
 20
-0.8890278556245335
 30
0.0
 10
23.2803988165072724
 20
-0.9289017193628659
 30
0.0
 10
23.3088098816702001
 20
-0.9517020122392772
 30
0.0
 10
23.3153603593589054
 20
-0.9561511429176619
 30
0.0
 10
23.3003158262763606
 20
-0.9440692523247023
 30
0.0
 10
23.2724367576822573
 20
-0.9241325013008748
 30
0.0
 10
23.249823442063061
 20
-0.9092331354808145
 30
0.0
 10
23.2495329477741137
 20
-0.9082193517623942
 30
0.0
 10
23.2782545509435295
 20
-0.9229387812779599
 30
0.0
 10
23.3346210239400023
 20
-0.9519006689277774
 30
0.0
 42
-0.0006239794954894
 10
23.3381424486636746
 20
-0.9537170217650424
 30
0.0
 10
23.4147340783208193
 20
-0.9933441182167329
 30
0.0
 42
-0.0020404389966642
 10
23.4262174266192034
 20
-0.9993449231326192
 30
0.0
 10
23.5136756613992191
 20
-1.045502945749849
 30
0.0
 42
-0.0031239952660314
 10
23.5311612056765291
 20
-1.0548714731969679
 30
0.0
 10
23.6270065115642041
 20
-1.1069974875925936
 30
0.0
 42
-0.0041190619514856
 10
23.6498800986787749
 20
-1.1196826917262546
 30
0.0
 10
23.751632941658869
 20
-1.1772137635128317
 30
0.0
 42
-0.0051684065201999
 10
23.7800327880475884
 20
-1.1936607382668303
 30
0.0
 10
23.8852136341049146
 20
-1.2560339330571431
 30
0.0
 42
-0.0063780636012626
 10
23.9197819352558945
 20
-1.2771338411873439
 30
0.0
 10
24.0259112503752021
 20
-1.3437862245941261
 30
0.0
 42
-0.0078572255617223
 10
24.0677383542618877
 20
-1.3709806292207107
 30
0.0
 10
24.1723366044279828
 20
-1.4413492668566228
 30
0.0
 42
-0.0097445706961422
 10
24.2229899460858498
 20
-1.4768795605450729
 30
0.0
 10
24.3235775972834602
 20
-1.5504015180228059
 30
0.0
 42
-0.0122364927381626
 10
24.3851586871057719
 20
-1.5977673329727202
 30
0.0
 10
24.4792561717410564
 20
-1.6738796325959306
 30
0.0
 42
-0.0154890719275042
 10
24.5537568950014098
 20
-1.7380577251173033
 30
0.0
 10
24.6386544637807532
 20
-1.8159005053325821
 30
0.0
 42
-0.0200002938295922
 10
24.7287206492121356
 20
-1.9053692705149454
 30
0.0
 10
24.8009287556700002
 20
-1.9830769026192137
 30
0.0
 42
-0.027925489032324
 10
24.9141109508984364
 20
-2.1194059832277801
 30
0.0
 10
24.9699750766231574
 20
-2.1949000609264964
 30
0.0
 42
-0.0426362536807482
 10
25.1116536641199488
 20
-2.4250340800762231
 30
0.0
 10
25.1475192906998757
 20
-2.4962361970748432
 30
0.0
 42
-0.0702210162773763
 10
25.2897917301039747
 20
-2.9165241870795731
 30
0.0
 10
25.3020043391274072
 20
-2.9813559370834959
 30
0.0
 42
-0.1124146792508696
 10
25.2754368013315514
 20
-3.6857801476284502
 30
0.0
 10
25.2603418743868531
 20
-3.7421631243431861
 30
0.0
 42
-0.1322633124675182
 10
24.8469195797190991
 20
-4.4566002674341441
 30
0.0
 10
24.8008625983945876
 20
-4.5024560645651235
 30
0.0
 42
-0.0983821973859595
 10
24.2857235628517572
 20
-4.8451930985148728
 30
0.0
 10
24.2050500087357676
 20
-4.8784433097675688
 30
0.0
 42
-0.0590939132573863
 10
23.844947015015876
 20
-4.9792269527708175
 30
0.0
 10
23.7260023696967437
 20
-4.997793171850649
 30
0.0
 42
-0.0352222814701036
 10
23.5034136622294483
 20
-5.0166302952789321
 30
0.0
 10
23.3432575514881506
 20
-5.0188743687195405
 30
0.0
 42
-0.0188652955032005
 10
23.2235392181621023
 20
-5.0160346867451535
 30
0.0
 10
23.0249027802600637
 20
-5.0038148129866862
 30
0.0
 42
-0.0095466484106298
 10
22.9644835497987145
 20
-4.998938459180934
 30
0.0
 10
22.7328025098961035
 20
-4.9757801498523193
 30
0.0
 42
-0.0044258943527462
 10
22.7048638266457345
 20
-4.9727374582710819
 30
0.0
 10
22.4455905663269419
 20
-4.9421764932889651
 30
0.0
 42
-0.0011009946958016
 10
22.4386491447979068
 20
-4.9413427951904314
 30
0.0
 10
22.1572360456474655
 20
-4.9069149544713362
 30
0.0
 10
21.8794234445768012
 20
-4.8745471950174384
 30
0.0
 10
21.5996968470498416
 20
-4.8460132572531656
 30
0.0
 10
21.3285796484442898
 20
-4.8246643091023174
 30
0.0
 10
21.0733502363659824
 20
-4.8129019855993711
 30
0.0
 10
20.8364430172107973
 20
-4.8122754544038955
 30
0.0
 10
20.6103119146841038
 20
-4.8228197410741096
 30
0.0
 10
20.38751215958942
 20
-4.8439489418028572
 30
0.0
 10
20.1656440873176024
 20
-4.8752568616936607
 30
0.0
 10
19.9427507876270766
 20
-4.916467901771032
 30
0.0
 10
19.7171118060379769
 20
-4.9673770548919229
 30
0.0
 10
19.4872499714988976
 20
-5.0277793065131284
 30
0.0
 10
19.2519133962121174
 20
-5.0974096098908959
 30
0.0
 10
19.0100381366354299
 20
-5.1758999330899478
 30
0.0
 10
18.7602344717435727
 20
-5.2629162088734596
 30
0.0
 10
18.4934400707408599
 20
-5.3606732789915945
 30
0.0
 10
18.2274371253943457
 20
-5.4610706028335123
 30
0.0
 10
17.9499644150408812
 20
-5.5666288287066727
 30
0.0
 42
-0.0008966243321636
 10
17.944639258852817
 20
-5.568643608166532
 30
0.0
 10
17.6608961276673853
 20
-5.6754169086005177
 30
0.0
 42
-0.002480008014598
 10
17.6461298524996124
 20
-5.6808900406092562
 30
0.0
 10
17.3599701255433985
 20
-5.7853439798217181
 30
0.0
 42
-0.0040477479181234
 10
17.3357550135375789
 20
-5.7939614710828984
 30
0.0
 10
17.0468042611244783
 20
-5.8941631634350777
 30
0.0
 42
-0.0056061518647266
 10
17.0130425367936908
 20
-5.9054485387744657
 30
0.0
 10
16.7209263292376704
 20
-5.9994650986276632
 30
0.0
 42
-0.0071565750263679
 10
16.6774747615005339
 20
-6.012766591832249
 30
0.0
 10
16.381818669115475
 20
-6.098665133547712
 30
0.0
 42
-0.0086937847661119
 10
16.3285495160511829
 20
-6.1131422738950878
 30
0.0
 10
16.0289791091510523
 20
-6.1889899118340672
 30
0.0
 42
-0.0089045544654558
 10
15.9739307281361658
 20
-6.2018888952181381
 30
0.0
 10
15.6702802601317899
 20
-6.2673591257285608
 30
0.0
 42
-0.0029758996191204
 10
15.6517845791361321
 20
-6.2712319353726738
 30
0.0
 10
15.359227261349929
 20
-6.3306751569036841
 30
0.0
 10
15.1013686461095205
 20
-6.3880414769858724
 30
0.0
 10
14.8849357305125736
 20
-6.4471323238657803
 30
0.0
 10
14.7039826352688294
 20
-6.5113822668778383
 30
0.0
 10
14.5478768804606773
 20
-6.5846753322886329
 30
0.0
 10
14.4019271808695422
 20
-6.6748691286999424
 30
0.0
 10
14.2509156982183498
 20
-6.7961134019535443
 30
0.0
 10
14.0831473880358686
 20
-6.9685005535552627
 30
0.0
 10
13.8897802092030389
 20
-7.2185499095969128
 30
0.0
 10
13.6750017365013932
 20
-7.5556659637472983
 30
0.0
 10
13.4536947360443264
 20
-7.9639259018110877
 30
0.0
 10
13.2388769170149629
 20
-8.4221266905659782
 30
0.0
 10
13.0398325762318237
 20
-8.9107043463527589
 30
0.0
 10
12.8639077788996303
 20
-9.4108497538176294
 30
0.0
 10
12.7173354766138829
 20
-9.9035797866319299
 30
0.0
 10
12.6054974008925811
 20
-10.3686271366955545
 30
0.0
 10
12.5326071334822657
 20
-10.7828051789529802
 30
0.0
 10
12.4994711246183812
 20
-11.1242351090353324
 30
0.0
 10
12.4993048906613637
 20
-11.3894159125623524
 30
0.0
 10
12.5211203294484505
 20
-11.590578407628243
 30
0.0
 10
12.555602755631412
 20
-11.7401800929340503
 30
0.0
 10
12.5971257404182353
 20
-11.8536525857723127
 30
0.0
 10
12.6452971413777462
 20
-11.9473470356890168
 30
0.0
 10
12.7043732147985935
 20
-12.0351650584817875
 30
0.0
 10
12.7807053041210636
 20
-12.1264160353920758
 30
0.0
 10
12.8799353445240783
 20
-12.2259912351153623
 30
0.0
 10
13.0029090948480288
 20
-12.3339323744536458
 30
0.0
 10
13.1408630204394825
 20
-12.4435701956709046
 30
0.0
 10
13.2863414013675936
 20
-12.5495072395371281
 30
0.0
 10
13.4392540756710304
 20
-12.6524895167550682
 30
0.0
 10
13.6006573842933278
 20
-12.7541717440557356
 30
0.0
 10
13.7825305214368825
 20
-12.8628118899331234
 30
0.0
 10
13.9578247435297627
 20
-12.9634061784534396
 30
0.0
 10
14.1428236016132516
 20
-13.0676131375557922
 30
0.0
 10
14.3375961265141854
 20
-13.1771823482266051
 30
0.0
 42
-0.0018091281640721
 10
14.3475880502276318
 20
-13.182851026190459
 30
0.0
 10
14.5419229564759718
 20
-13.2940336528772463
 30
0.0
 42
-0.0038760269728238
 10
14.5631907635043376
 20
-13.3064211745155312
 30
0.0
 10
14.7547489798679408
 20
-13.4199928453877604
 30
0.0
 42
-0.0063812348494684
 10
14.789336297355117
 20
-13.4411002454264761
 30
0.0
 10
14.9721466703643955
 20
-13.5558901448595339
 30
0.0
 42
-0.0099465089090234
 10
15.0249523715049467
 20
-13.5905311061005047
 30
0.0
 10
15.1910866282573522
 20
-13.7043066581073383
 30
0.0
 42
-0.0156380343869797
 10
15.2712027126697301
 20
-13.7629358612317212
 30
0.0
 10
15.4127268070490686
 20
-13.8734613577888233
 30
0.0
 42
-0.0259967123995915
 10
15.5372918562794524
 20
-13.9816180437471669
 30
0.0
 10
15.6462717421695316
 20
-14.086657776831041
 30
0.0
 42
-0.0476541402723651
 10
15.8427445972936738
 20
-14.3159021711119596
 30
0.0
 10
15.9112462285783067
 20
-14.4132204326990685
 30
0.0
 42
-0.0971302075563292
 10
16.1602148694934762
 20
-14.97120853067673
 30
0.0
 10
16.1803042000564687
 20
-15.058569612743602
 30
0.0
 42
-0.1704866048398988
 10
16.0630405486301413
 20
-16.1040262088241306
 30
0.0
 10
16.0267835323552887
 20
-16.1791944033472213
 30
0.0
 42
-0.1454905229533833
 10
15.4178301690120989
 20
-16.8482861341922003
 30
0.0
 10
15.3172927597832071
 20
-16.9090257331479989
 30
0.0
 42
-0.0731781570962569
 10
14.8911005934607488
 20
-17.0878965671224421
 30
0.0
 10
14.7189997171363842
 20
-17.1320745838745196
 30
0.0
 42
-0.0344009678753983
 10
14.5044351467804802
 20
-17.1716728266004459
 30
0.0
 10
14.2651739781102549
 20
-17.1990003288526125
 30
0.0
 42
-0.0183469892641103
 10
14.1490551874823538
 20
-17.2079631050214452
 30
0.0
 10
13.8571451940400934
 20
-17.2197462181756222
 30
0.0
 42
-0.0119081450290959
 10
13.7815495215520798
 20
-17.22099581526912
 30
0.0
 10
13.4518354685626988
 20
-17.2185932580773802
 30
0.0
 42
-0.0089676330413869
 10
13.3949136871480619
 20
-17.2171573039051076
 30
0.0
 10
13.0422403398364182
 20
-17.2019277951195626
 30
0.0
 42
-0.007677047874517
 10
12.9935773747454544
 20
-17.1990772701634036
 30
0.0
 10
12.6327894983364288
 20
-17.1723795285361369
 30
0.0
 42
-0.0074307508818605
 10
12.5857924278066804
 20
-17.1681987348196294
 30
0.0
 10
12.2317347875252125
 20
-17.1313914791027315
 30
0.0
 42
-0.0081475653551197
 10
12.1803724806106981
 20
-17.1252044446225966
 30
0.0
 10
11.8478898416816421
 20
-17.0796463935681402
 30
0.0
 42
-0.0102005142373184
 10
11.7839156055210577
 20
-17.0695468860584896
 30
0.0
 10
11.4878527331693263
 20
-17.0165967584185829
 30
0.0
 42
-0.014859674915516
 10
11.3955226322830043
 20
-16.9972362183779495
 30
0.0
 10
11.1506311212824727
 20
-16.9382379683090605
 30
0.0
 42
-0.0243554732192724
 10
11.0023053451337489
 20
-16.8947640790784561
 30
0.0
 10
10.8146406330404119
 20
-16.8296835924404959
 30
0.0
 42
-0.0376472352616353
 10
10.5956159045936431
 20
-16.7347300732267108
 30
0.0
 10
10.455578557098832
 20
-16.6610524294655846
 30
0.0
 42
-0.0507497312500731
 10
10.1877281209435715
 20
-16.4833581038130035
 30
0.0
 10
10.0840811398912251
 20
-16.3983088798419665
 30
0.0
 42
-0.0536072537288275
 10
9.846205780734838
 20
-16.1561757268364872
 30
0.0
 10
9.7677121679688099
 20
-16.0569804995689083
 30
0.0
 42
-0.0404887725840671
 10
9.6252275578110869
 20
-15.8434758045338189
 30
0.0
 10
9.560650315175323
 20
-15.7273601508829781
 30
0.0
 42
-0.0199802938772447
 10
9.5034855514789456
 20
-15.6141498301692732
 30
0.0
 10
9.4415876808173209
 20
-15.4783393270484755
 30
0.0
 42
-0.0022100217774049
 10
9.435824128985562
 20
-15.4655439157601666
 30
0.0
 10
9.3777128641502614
 20
-15.3349957204519658
 30
0.0
 10
9.3231208802473446
 20
-15.2239830119815007
 30
0.0
 10
9.2276910432195223
 20
-15.0575327380050314
 30
0.0
 10
8.9321649874658178
 20
-15.2672600390198134
 30
0.0
 42
-0.0468295192296531
 10
8.6752007475843396
 20
-15.4156184120874826
 30
0.0
 10
8.3458085491615392
 20
-15.5666878333430301
 30
0.0
 10
8.4422437963781434
 20
-15.7325576334763735
 30
0.0
 10
8.5110876301049956
 20
-15.835342032614486
 30
0.0
 10
8.5950900512425648
 20
-15.9509419618621564
 30
0.0
 42
-0.0022100217773633
 10
8.6032894265540847
 20
-15.9623310498084194
 30
0.0
 10
8.6899558370266234
 20
-16.0838414298019394
 30
0.0
 42
-0.0199802938772294
 10
8.7594164688870411
 20
-16.1899527277210993
 30
0.0
 10
8.8276869534078557
 20
-16.3039360871754511
 30
0.0
 42
-0.0404887725841055
 10
8.9413451380567448
 20
-16.5340837267381104
 30
0.0
 10
8.9880039184216329
 20
-16.6516588030620802
 30
0.0
 42
-0.0536072537288986
 10
9.0787597004446674
 20
-16.9787314835290459
 30
0.0
 10
9.1005909984495332
 20
-17.1110170141314768
 30
0.0
 42
-0.0507497312499493
 10
9.1205535804953062
 20
-17.4318294590822127
 30
0.0
 10
9.1143416179360486
 20
-17.5899441813718589
 30
0.0
 42
-0.0376472352617062
 10
9.0870614135304955
 20
-17.8271019198710867
 30
0.0
 10
9.0495904122029529
 20
-18.02216457125677
 30
0.0
 42
-0.0243554732192422
 10
9.013077016603658
 20
-18.172355406052727
 30
0.0
 10
8.9417252444418693
 20
-18.4139368007847999
 30
0.0
 42
-0.0148596749155225
 10
8.9123269135048595
 20
-18.5035772837066972
 30
0.0
 10
8.8101516329987675
 20
-18.7864503161006269
 30
0.0
 42
-0.0102005142373229
 10
8.7869109449875467
 20
-18.8469033835582529
 30
0.0
 10
8.6601240550830809
 20
-19.1576208207153229
 30
0.0
 42
-0.0081475653551059
 10
8.6398010306597417
 20
-19.2051954005402479
 30
0.0
 10
8.4946482290134711
 20
-19.5302219392864274
 30
0.0
 42
-0.007430750881877
 10
8.4747703673150117
 20
-19.5730129931269907
 30
0.0
 10
8.3174973515833912
 20
-19.8988133302882702
 30
0.0
 42
-0.007677047874515
 10
8.2956344960640749
 20
-19.942381956758588
 30
0.0
 10
8.1324869639036734
 20
-20.2554207891609401
 30
0.0
 42
-0.0089676330413916
 10
8.1052696459881943
 20
-20.3054344749808457
 30
0.0
 10
7.9424932950555771
 20
-20.5921764994502645
 30
0.0
 42
-0.011908145029093
 10
7.9036132759841253
 20
-20.657019473694298
 30
0.0
 10
7.7474538039358194
 20
-20.9039293870567455
 30
0.0
 42
-0.0183469892640901
 10
7.6816324167712819
 20
-21.000009821512716
 30
0.0
 10
7.5383355212638605
 20
-21.1935523205941792
 30
0.0
 42
-0.034400967875415
 10
7.396760151939942
 20
-21.3595715679116047
 30
0.0
 10
7.2724504289816636
 20
-21.4865262904460224
 30
0.0
 42
-0.0731781570962676
 10
6.9044476596024023
 20
-21.7661841163880077
 30
0.0
 10
6.8015769192765276
 20
-21.8228822673330001
 30
0.0
 42
-0.1454905229533237
 10
5.9176498012314616
 20
-22.0157054842856752
 30
0.0
 10
5.8344237270804058
 20
-22.009520884183587
 30
0.0
 42
-0.1704866048399812
 10
4.8703999306070385
 20
-21.5883458872188889
 30
0.0
 10
4.8047876795165436
 20
-21.5272674755728879
 30
0.0
 42
-0.0971302075563354
 10
4.4460401321161882
 20
-21.0326602588057412
 30
0.0
 10
4.3960108609719057
 20
-20.9246769751190129
 30
0.0
 42
-0.0476541402723506
 10
4.2957158194116074
 20
-20.6399042942870601
 30
0.0
 10
4.2592386850992909
 20
-20.4930050780627795
 30
0.0
 42
-0.0259967123995581
 10
4.2278547720854771
 20
-20.3310502380266449
 30
0.0
 10
4.2028989314907932
 20
-20.1532240287679976
 30
0.0
 42
-0.0156380343869763
 10
4.1921825943876296
 20
-20.0545268628529705
 30
0.0
 10
4.1767172043962972
 20
-19.8537626000631278
 30
0.0
 42
-0.0099465089090171
 10
4.1731201025203788
 20
-19.7907110407903168
 30
0.0
 10
4.1651143200181053
 20
-19.5749976639724537
 30
0.0
 42
-0.0063812348494846
 10
4.1641284341203431
 20
-19.5344904683603353
 30
0.0
 10
4.1615515901765363
 20
-19.3118103512497079
 30
0.0
 42
-0.0038760269728573
 10
4.1614575852620241
 20
-19.2871981292609966
 30
0.0
 10
4.1623380592159762
 20
-19.0633078502644864
 30
0.0
 42
-0.0018091281640537
 10
4.1624248019501309
 20
-19.0518202515142079
 30
0.0
 10
4.1649357197849071
 20
-18.8270202358885861
 30
0.0
 10
4.1672576051466734
 20
-18.6021276436662468
 30
0.0
 10
4.1675314021234513
 20
-18.3878601252458544
 30
0.0
 10
4.1645562437783923
 20
-18.2021072776325568
 30
0.0
 10
4.15719850613376
 20
-18.0114867984604885
 30
0.0
 10
4.1444695750751919
 20
-17.8275693993441884
 30
0.0
 10
4.1254645943492321
 20
-17.6486129038257111
 30
0.0
 10
4.0994924187552684
 20
-17.4743223891033175
 30
0.0
 10
4.0674995251368102
 20
-17.3138534276547453
 30
0.0
 10
4.0308798927910914
 20
-17.1781300919856648
 30
0.0
 10
3.9900202733278789
 20
-17.0663990750533365
 30
0.0
 10
3.9435056713896515
 20
-16.9713286833186991
 30
0.0
 10
3.8864495980478821
 20
-16.8827638013934482
 30
0.0
 10
3.808941029012658
 20
-16.7900675953080345
 30
0.0
 10
3.6966233821802774
 20
-16.6854040955964784
 30
0.0
 10
3.5333192705581169
 20
-16.5659301238792303
 30
0.0
 10
3.303582841129284
 20
-16.4334836849454966
 30
0.0
 10
2.9913278436336412
 20
-16.2914653453604608
 30
0.0
 10
2.5961940036440154
 20
-16.1475011474977883
 30
0.0
 10
2.1375321466653503
 20
-16.0118320871508892
 30
0.0
 10
1.6375292698980317
 20
-15.892402408014437
 30
0.0
 10
1.1164282427809553
 20
-15.7946850479272829
 30
0.0
 10
0.5937854107566523
 20
-15.7227736756316183
 30
0.0
 10
0.089562978146418
 20
-15.6797109697191779
 30
0.0
 10
-0.3746539997930327
 20
-15.6672384851184496
 30
0.0
 10
-0.7739943030616061
 20
-15.6846840715888778
 30
0.0
 10
-1.0872269870100624
 20
-15.7271202826954273
 30
0.0
 10
-1.3204027946744077
 20
-15.7862183254625901
 30
0.0
 10
-1.5009091567010557
 20
-15.8563759690748807
 30
0.0
 10
-1.6519941254525889
 20
-15.9376752183898684
 30
0.0
 10
-1.7935206594235922
 20
-16.0362202350252367
 30
0.0
 10
-1.9396392898855908
 20
-16.1608052408937048
 30
0.0
 10
-2.0990299222132975
 20
-16.3186962205759407
 30
0.0
 10
-2.2776399203461182
 20
-16.5133251719174901
 30
0.0
 10
-2.4753979191679534
 20
-16.7369656304179948
 30
0.0
 42
-0.0029758996191195
 10
-2.4879997112016063
 20
-16.7510469551984649
 30
0.0
 10
-2.6965238280174333
 20
-16.9812808591060822
 30
0.0
 42
-0.0089045544654627
 10
-2.7352188658185064
 20
-17.0225046638101709
 30
0.0
 10
-2.9506900505407998
 20
-17.2440164274382575
 30
0.0
 42
-0.0086937847661163
 10
-2.9898621983879452
 20
-17.2829102970563504
 30
0.0
 10
-3.2120805638540944
 20
-17.496006712987711
 30
0.0
 42
-0.0071565750263539
 10
-3.245325778746067
 20
-17.5269861278799546
 30
0.0
 10
-3.4728046117333449
 20
-17.7329579045540626
 30
0.0
 42
-0.0056061518647421
 10
-3.4994588956339561
 20
-17.7565537278304681
 30
0.0
 10
-3.7307114829197054
 20
-17.956691573686733
 30
0.0
 42
-0.0040477479181114
 10
-3.7502820052716181
 20
-17.9733537302086219
 30
0.0
 10
-3.9838216336330738
 20
-18.168948353686492
 30
0.0
 42
-0.0024800080145993
 10
-3.99594464257479
 20
-18.178999757096701
 30
0.0
 10
-4.2302845987892681
 20
-18.3713418666356247
 30
0.0
 42
-0.0008966243321589
 10
-4.2346920270785242
 20
-18.3749461974436699
 30
0.0
 10
-4.4683455979232889
 20
-18.5653265014830673
 30
0.0
 10
-4.6963249596921841
 20
-18.7521747075094503
 30
0.0
 10
-4.9028498996550027
 20
-18.9248043405571664
 30
0.0
 10
-5.1031100374727245
 20
-19.0976325224206782
 30
0.0
 10
-5.2920222811023834
 20
-19.2678574801612541
 30
0.0
 10
-5.4699921803443488
 20
-19.436849781110535
 30
0.0
 10
-5.6372329819635212
 20
-19.6057148433711781
 30
0.0
 10
-5.794141092646047
 20
-19.775669356951056
 30
0.0
 10
-5.94127755011462
 20
-19.9480950967776209
 30
0.0
 10
-6.0793250402154797
 20
-20.1245845237081014
 30
0.0
 10
-6.2090233423557386
 20
-20.3069701712129138
 30
0.0
 10
-6.3312205137401598
 20
-20.4975333072515049
 30
0.0
 10
-6.449131531386243
 20
-20.7030142429776163
 30
0.0
 10
-6.5665597664643087
 20
-20.9299305593819085
 30
0.0
 10
-6.6836296343245039
 20
-21.1753994148528726
 30
0.0
 10
-6.7987818181139943
 20
-21.4319167233072605
 30
0.0
 10
-6.9131927687238672
 20
-21.6969484585251067
 30
0.0
 10
-7.020547981613781
 20
-21.9496181862344955
 30
0.0
 42
-0.0011009946957832
 10
-7.0232966886458232
 20
-21.956046482666185
 30
0.0
 10
-7.126466746766539
 20
-22.1958641951153162
 30
0.0
 42
-0.0044258943527562
 10
-7.1378010401865204
 20
-22.221581150349099
 30
0.0
 10
-7.2335858759505882
 20
-22.4338019711442591
 30
0.0
 42
-0.0095466484106151
 10
-7.2595724449075671
 20
-22.4885647365037009
 30
0.0
 10
-7.348307942752669
 20
-22.6666988747233624
 30
0.0
 42
-0.0188652955032114
 10
-7.4057078726872696
 20
-22.7717978336696909
 30
0.0
 10
-7.4877293526654327
 20
-22.9093750574226576
 30
0.0
 42
-0.0352222814701079
 10
-7.615337133822214
 20
-23.0927239709707557
 30
0.0
 10
-7.6908882738571407
 20
-23.1864499459213498
 30
0.0
 42
-0.0590939132574053
 10
-7.9582209658439371
 20
-23.447916464960052
 30
0.0
 10
-8.0273532705279607
 20
-23.5011567066117451
 30
0.0
 42
-0.0983821973859461
 10
-8.5817417665175419
 20
-23.7759116808979059
 30
0.0
 10
-8.6444825424060099
 20
-23.7928702981810645
 30
0.0
 42
-0.1322633124675175
 10
-9.4699144050638608
 20
-23.7936859363086661
 30
0.0
 10
-9.5262909587121491
 20
-23.7785670381536818
 30
0.0
 42
-0.1124146792508473
 10
-10.1496239889826381
 20
-23.4493630955285113
 30
0.0
 10
-10.1996636269461334
 20
-23.4063707908657612
 30
0.0
 42
-0.0702210162774121
 10
-10.492507483493867
 20
-23.0730152490808749
 30
0.0
 10
-10.5362375123278973
 20
-23.0063536468407328
 30
0.0
 42
-0.0426362536807096
 10
-10.6647001254380775
 20
-22.7685893813215436
 30
0.0
 10
-10.7021478516980899
 20
-22.6824625904343691
 30
0.0
 42
-0.0279254890323274
 10
-10.7636212011654884
 20
-22.5162793938061547
 30
0.0
 10
-10.794813931406793
 20
-22.4148915232023391
 30
0.0
 42
-0.0200002938296166
 10
-10.8272630621843007
 20
-22.2921575360054725
 30
0.0
 10
-10.852228102962286
 20
-22.1797126946153753
 30
0.0
 42
-0.0154890719274974
 10
-10.8705575998220212
 20
-22.0831041294109482
 30
0.0
 10
-10.8894240425184989
 20
-21.9635571674729846
 30
0.0
 42
-0.0122364927382204
 10
-10.8996534966249605
 20
-21.8865434718188112
 30
0.0
 10
-10.9130315539378273
 20
-21.7626710318357759
 30
0.0
 42
-0.0097445706960118
 10
-10.9184750200469622
 20
-21.7010388043300857
 30
0.0
 10
-10.9271169227863183
 20
-21.5752697436769232
 30
0.0
 42
-0.007857225561818
 10
-10.9297544160904287
 20
-21.525449206830416
 30
0.0
 10
-10.9344124157838039
 20
-21.4002123321474862
 30
0.0
 42
-0.0063780636011899
 10
-10.9354013216665891
 20
-21.3597253511203959
 30
0.0
 10
-10.9368276698415343
 20
-21.2374494690480802
 30
0.0
 42
-0.0051684065202825
 10
-10.9368712445995246
 20
-21.2046309932343817
 30
0.0
 10
-10.9358181927835858
 20
-21.0877449104130079
 30
0.0
 42
-0.0041190619514152
 10
-10.9353671082583048
 20
-21.0615932008296518
 30
0.0
 10
-10.932586907979065
 20
-20.9525257238996758
 30
0.0
 42
-0.0031239952660647
 10
-10.9319575186056532
 20
-20.9326985346327703
 30
0.0
 10
-10.9282024213906794
 20
-20.833878470234481
 30
0.0
 42
-0.002040438996675
 10
-10.9276575967417813
 20
-20.8209331964295821
 30
0.0
 10
-10.9236798541185962
 20
-20.7347893512033856
 30
0.0
 42
-0.0006239794955389
 10
-10.923492149456008
 20
-20.7308315315162446
 30
0.0
 10
-10.9200194953677254
 20
-20.6594909490902374
 30
0.0
 10
-10.9178657948747642
 20
-20.609617519139551
 30
0.0
 10
-10.9174590338795383
 20
-20.5871623038288263
 30
0.0
 10
-10.9181887297123694
 20
-20.594017014191305
 30
0.0
 10
-10.9183103398067409
 20
-20.6234647516039509
 30
0.0
 10
-10.9169580932761718
 20
-20.656309563105534
 30
0.0
 10
-10.916246858108984
 20
-20.6704300162342705
 30
0.0
 10
-10.9193101723701318
 20
-20.6539012364476733
 30
0.0
 10
-10.9275915359895848
 20
-20.6055831571076844
 30
0.0
 10
-10.9409838692044019
 20
-20.5279636271677433
 30
0.0
 42
-0.0019609086917536
 10
-10.94305153462237
 20
-20.515684777535256
 30
0.0
 10
-10.9593746835225545
 20
-20.4163726309796658
 30
0.0
 42
-0.0055554242025921
 10
-10.9647088346311143
 20
-20.3815024033304475
 30
0.0
 10
-10.9806622743782398
 20
-20.2688524617724219
 30
0.0
 42
-0.0086346233481461
 10
-10.9874114461846943
 20
-20.2144436958866116
 30
0.0
 10
-11.0004585828585633
 20
-20.0919892690595887
 30
0.0
 42
-0.0117859807363769
 10
-11.0066307393484593
 20
-20.0174136655573385
 30
0.0
 10
-11.0142349790288847
 20
-19.888688063194742
 30
0.0
 42
-0.0154660042782226
 10
-11.0169911921367643
 20
-19.7905411148374419
 30
0.0
 10
-11.0166159409035309
 20
-19.659077646672749
 30
0.0
 42
-0.0200788387547414
 10
-11.0111364604084905
 20
-19.531746248308206
 30
0.0
 10
-11.0002451243414434
 20
-19.4010782240747623
 30
0.0
 42
-0.0260411737799181
 10
-10.9779665701061191
 20
-19.2373374924573959
 30
0.0
 10
-10.954022555285043
 20
-19.1109982218886749
 30
0.0
 42
-0.0337029953327342
 10
-10.9001658218632613
 20
-18.9041224670166557
 30
0.0
 10
-10.8606325343679693
 20
-18.7856452598460741
 30
0.0
 42
-0.0429925622450053
 10
-10.7525135737797317
 20
-18.5355132018460331
 30
0.0
 10
-10.6948554173862718
 20
-18.4284297012585725
 30
0.0
 42
-0.0488886242869343
 10
-10.522131042138362
 20
-18.1713655915046601
 30
0.0
 10
-10.4448061260656644
 20
-18.0775475583964287
 30
0.0
 42
-0.0410692936177013
 10
-10.2633020544229403
 20
-17.8908958645813208
 30
0.0
 10
-10.1676268875829265
 20
-17.8074403984453795
 30
0.0
 42
-0.0291931341454634
 10
-10.0211828039370925
 20
-17.6940382726980197
 30
0.0
 10
-9.9089847157101865
 20
-17.6171892002042156
 30
0.0
 42
-0.018153302228441
 10
-9.8116115752144211
 20
-17.5555637945105154
 30
0.0
 10
-9.684717894981155
 20
-17.481564942328756
 30
0.0
 42
-0.0089886020306559
 10
-9.6349067804688175
 20
-17.4537049076273902
 30
0.0
 10
-9.4951448376097147
 20
-17.3788001024275225
 30
0.0
 42
-0.0016221510177981
 10
-9.486050173110085
 20
-17.3739637717608382
 30
0.0
 10
-9.3352472970055764
 20
-17.2943968402127233
 30
0.0
 10
-9.2246655570236946
 20
-17.2333244904275347
 30
0.0
 10
-9.1174860009390457
 20
-17.1691972741669652
 30
0.0
 10
-9.01980358690912
 20
-17.1036337088307313
 30
0.0
 10
-8.9199047576533061
 20
-17.0271575161646176
 30
0.0
 10
-8.8106746320372871
 20
-16.9327421889442675
 30
0.0
 10
-8.6958024321292342
 20
-16.821961752792344
 30
0.0
 10
-8.5811179798680008
 20
-16.6991835782427636
 30
0.0
 10
-8.4715732946968814
 20
-16.5689317508106058
 30
0.0
 10
-8.3715184017755604
 20
-16.4360434806460205
 30
0.0
 10
-8.2848033572686646
 20
-16.3058823730699629
 30
0.0
 10
-8.2147114837098627
 20
-16.1846008172945552
 30
0.0
 10
-8.1635154916665513
 20
-16.0791085632542519
 30
0.0
 10
-8.1294062752037419
 20
-15.9907416622915228
 30
0.0
 10
-8.1069142844407303
 20
-15.9122345452895395
 30
0.0
 10
-8.0926736776999562
 20
-15.8384212217319718
 30
0.0
 10
-8.0854825078417178
 20
-15.7692221058249338
 30
0.0
 10
-8.0843380447788604
 20
-15.7052584453289903
 30
0.0
 10
-8.088182033547163
 20
-15.6477077566483516
 30
0.0
 10
-8.0956911440466044
 20
-15.5982958225444506
 30
0.0
 10
-8.105053366020897
 20
-15.5592645508816876
 30
0.0
 10
-8.1092257625513824
 20
-15.5467505443321361
 30
0.0
 10
-8.1506693661247702
 20
-15.5141283777322467
 30
0.0
 10
-8.2386971723700952
 20
-15.4532759360479872
 30
0.0
 10
-8.3700328936717021
 20
-15.3708442995488888
 30
0.0
 10
-8.5444610039923425
 20
-15.2684026436137223
 30
0.0
 10
-8.7669064706481947
 20
-15.1429975214793906
 30
0.0
 42
-0.0051276367831564
 10
-8.7951039438556649
 20
-15.126717702732595
 30
0.0
 10
-9.0149306987167392
 20
-14.9967768387190361
 30
0.0
 10
-9.1908618303225467
 20
-14.8969384920148933
 30
0.0
 10
-9.3279175822571894
 20
-14.8244142391928406
 30
0.0
 10
-9.4246312457606933
 20
-14.778606143587135
 30
0.0
 10
-9.4736046725493139
 20
-14.7590260133681745
 30
0.0
 10
-9.4865283183896416
 20
-14.7616696152528917
 30
0.0
 10
-9.525011502178593
 20
-14.7730773290186086
 30
0.0
 10
-9.5715580476125766
 20
-14.791280215618297
 30
0.0
 10
-9.6233204003994359
 20
-14.8167265680333813
 30
0.0
 10
-9.6781423237765161
 20
-14.8496995323674916
 30
0.0
 10
-9.7344749311422873
 20
-14.8905268261011479
 30
0.0
 10
-9.7912788411105325
 20
-14.9397662150827468
 30
0.0
 10
-9.848022003430696
 20
-14.9984984089662809
 30
0.0
 10
-9.9074953762866329
 20
-15.0722213074075082
 30
0.0
 10
-9.973256352166409
 20
-15.1693044641091621
 30
0.0
 10
-10.0432433236989809
 20
-15.2906465850975994
 30
0.0
 10
-10.11260862719109
 20
-15.4308245703189009
 30
0.0
 10
-10.1776657985579284
 20
-15.5839187844439717
 30
0.0
 10
-10.2356948474180456
 20
-15.7439131783679738
 30
0.0
 10
-10.284681639477558
 20
-15.9046219147198808
 30
0.0
 10
-10.3231842114734675
 20
-16.0594943761049009
 30
0.0
 10
-10.3503352205449097
 20
-16.2012981033571997
 30
0.0
 10
-10.3666161315505363
 20
-16.3260511236338708
 30
0.0
 10
-10.374554637679438
 20
-16.4434283583551029
 30
0.0
 10
-10.3765006579927501
 20
-16.5683121848210071
 30
0.0
 10
-10.373293720507597
 20
-16.7219530115791386
 30
0.0
 10
-10.3676055403541838
 20
-16.8649975431769406
 30
0.0
 42
-0.0016221510177911
 10
-10.3672465933228395
 20
-16.8752919190058037
 30
0.0
 10
-10.3622350860618724
 20
-17.0337817146040109
 30
0.0
 42
-0.0089886020306516
 10
-10.3614570266073898
 20
-17.0908494225131022
 30
0.0
 10
-10.3620950723310479
 20
-17.237741999265765
 30
0.0
 42
-0.01815330222845
 10
-10.3667776689324498
 20
-17.3528823154283316
 30
0.0
 10
-10.377231873855898
 20
-17.4884732463357828
 30
0.0
 42
-0.0291931341454243
 10
-10.4022189537733354
 20
-17.6719986058804359
 30
0.0
 10
-10.4266559241117065
 20
-17.7965834639431932
 30
0.0
 42
-0.0410692936177415
 10
-10.4975489967937108
 20
-18.0470964477838862
 30
0.0
 10
-10.5401353387621732
 20
-18.1609708060024566
 30
0.0
 42
-0.0488886242869102
 10
-10.6763972005862833
 20
-18.4390865576967506
 30
0.0
 10
-10.7403051542244405
 20
-18.5425617361626109
 30
0.0
 42
-0.042992562245012
 10
-10.902866390459284
 20
-18.7612615316628393
 30
0.0
 10
-10.9857040178907823
 20
-18.8547369665141673
 30
0.0
 42
-0.0337029953327308
 10
-11.1379353103261209
 20
-19.0048161432582852
 30
0.0
 10
-11.2353763207236881
 20
-19.0887219036462845
 30
0.0
 42
-0.0260411737799331
 10
-11.3660406768209938
 20
-19.1898860633823993
 30
0.0
 10
-11.4737568372359533
 20
-19.2646522492143539
 30
0.0
 42
-0.0200788387547419
 10
-11.5812893226715712
 20
-19.3330633177048803
 30
0.0
 10
-11.694952400155227
 20
-19.3991200288880314
 30
0.0
 42
-0.0154660042781997
 10
-11.781328257290328
 20
-19.4458065524969292
 30
0.0
 10
-11.8966100188940089
 20
-19.5035838889384934
 30
0.0
 42
-0.0117859807363875
 10
-11.9642804642745091
 20
-19.5355264463732752
 30
0.0
 10
-12.0768526770495157
 20
-19.5854545079805611
 30
0.0
 42
-0.0086346233481318
 10
-12.127346636398368
 20
-19.6068139366845209
 30
0.0
 10
-12.23288106739599
 20
-19.6493228233647876
 30
0.0
 42
-0.0055554242026146
 10
-12.2657466459303777
 20
-19.6621384268218158
 30
0.0
 10
-12.3599150622019778
 20
-19.6976582384822976
 30
0.0
 42
-0.0019609086917229
 10
-12.3715826906217714
 20
-19.702007012519978
 30
0.0
 10
-12.4503476439289003
 20
-19.7310130884453052
 30
0.0
 10
-12.5089885309746265
 20
-19.7528343567329188
 30
0.0
 10
-12.5429396964016036
 20
-19.7660389144747128
 30
0.0
 10
-12.5500679954371819
 20
-19.7694872292204487
 30
0.0
 10
-12.5320825047167759
 20
-19.7624992266793882
 30
0.0
 10
-12.5008772375648896
 20
-19.7483236205553183
 30
0.0
 10
-12.4766673504540329
 20
-19.7361895976748514
 30
0.0
 10
-12.4756441408561258
 20
-19.7364449141006446
 30
0.0
 10
-12.5027523423301474
 20
-19.7539588373246993
 30
0.0
 10
-12.5560173092744378
 20
-19.7882926910363253
 30
0.0
 42
-0.000623979495553
 10
-12.5593510293358932
 20
-19.7904341578861462
 30
0.0
 10
-12.6319649163698458
 20
-19.8369509066606469
 30
0.0
 42
-0.0020404389966598
 10
-12.6429034400193245
 20
-19.8438953755495966
 30
0.0
 10
-12.72660657758437
 20
-19.8965574173305875
 30
0.0
 42
-0.0031239952660105
 10
-12.7434627324881475
 20
-19.9070160791501038
 30
0.0
 10
-12.8365278380965719
 20
-19.9639575416845396
 30
0.0
 42
-0.0041190619514795
 10
-12.8589503406858015
 20
-19.9774240471345692
 30
0.0
 10
-12.9596501318500046
 20
-20.0367790581693264
 30
0.0
 42
-0.0051684065202634
 10
-12.9880935529970554
 20
-20.0531505592287544
 30
0.0
 10
-13.094700747229318
 20
-20.1130532465107486
 30
0.0
 42
-0.0063780636011897
 10
-13.1302579542626745
 20
-20.1324403194078521
 30
0.0
 10
-13.2410452690753644
 20
-20.1910248106840378
 30
0.0
 42
-0.0078572255617967
 10
-13.2855098662665529
 20
-20.2136509429035662
 30
0.0
 10
-13.3987500191719704
 20
-20.2690513659208271
 30
0.0
 42
-0.0097445706960678
 10
-13.454846826938633
 20
-20.2951532997386614
 30
0.0
 10
-13.5688125354491227
 20
-20.3455037822439557
 30
0.0
 42
-0.0122364927381722
 10
-13.6406230793778995
 20
-20.3751516629478857
 30
0.0
 10
-13.7535870067097008
 20
-20.4185863252626625
 30
0.0
 42
-0.0154890719275207
 10
-13.8464172268299084
 20
-20.4510167979458011
 30
0.0
 10
-13.9562798363871998
 20
-20.485618859120617
 30
0.0
 42
-0.0200002938295856
 10
-14.0787951525960224
 20
-20.5188840811349529
 30
0.0
 10
-14.1821959892951703
 20
-20.5425643196345042
 30
0.0
 42
-0.0279254890323484
 10
-14.3568515339911507
 20
-20.5724184356541464
 30
0.0
 10
-14.4501633859758662
 20
-20.583051148842614
 30
0.0
 42
-0.0426362536807095
 10
-14.7203045865827313
 20
-20.5906813952122434
 30
0.0
 10
-14.7999002419966992
 20
-20.5861408804538222
 30
0.0
 42
-0.070221016277403
 10
-15.2350165379485354
 20
-20.4992084322337469
 30
0.0
 10
-15.2972687849354649
 20
-20.4773689868925679
 30
0.0
 42
-0.1124146792508675
 10
-15.8940342774102312
 20
-20.1021487189728951
 30
0.0
 10
-15.9353159041138177
 20
-20.0608846404131604
 30
0.0
 42
-0.1322633124675185
 10
-16.3473254721038934
 20
-19.3456318591945475
 30
0.0
 10
-16.3640092666678569
 20
-19.2828174447803988
 30
0.0
 42
-0.0983821973859416
 10
-16.4032587271146681
 20
-18.6653254365445136
 30
0.0
 10
-16.3917174776826862
 20
-18.5788349836401459
 30
0.0
 42
-0.0590939132574169
 10
-16.2989471759494506
 20
-18.2165848215980795
 30
0.0
 10
-16.2555536706652397
 20
-18.1042926275676663
 30
0.0
 42
-0.0352222814700962
 10
-16.1605727443547202
 20
-17.9021065905913481
 30
0.0
 10
-16.0824381135915964
 20
-17.7622852933977775
 30
0.0
 42
-0.0188652955031961
 10
-16.0201197102001167
 20
-17.6600260164258884
 30
0.0
 10
-15.9102187701432172
 20
-17.4941117519647342
 30
0.0
 42
-0.0095466484106372
 10
-15.8757861086388594
 20
-17.4442253404109628
 30
0.0
 10
-15.7398899045002807
 20
-17.2551628289443748
 30
0.0
 42
-0.0044258943527365
 10
-15.7232855146699109
 20
-17.2324885652919342
 30
0.0
 10
-15.5671823124718571
 20
-17.0232318178249109
 30
0.0
 42
-0.0011009946958027
 10
-15.5629895979749033
 20
-17.017637219491661
 30
0.0
 10
-15.3924676637394988
 20
-16.7911402470292046
 30
0.0
 10
-15.2255300612536217
 20
-16.5667313567376446
 30
0.0
 10
-15.0609556475162485
 20
-16.3387479860472631
 30
0.0
 10
-14.9069083167706999
 20
-16.1146280787273
 30
0.0
 10
-14.7691071397703766
 20
-15.8994740858258545
 30
0.0
 10
-14.6501109382612746
 20
-15.694619681295336
 30
0.0
 10
-14.5461770071192156
 20
-15.4935122585865237
 30
0.0
 10
-14.4530755541644496
 20
-15.289997410352834
 30
0.0
 10
-14.3692549719937617
 20
-15.0822000635316549
 30
0.0
 10
-14.2934981297718551
 20
-14.8685632836275747
 30
0.0
 10
-14.2247672588651568
 20
-14.6476996169269125
 30
0.0
 10
-14.1621462259453956
 20
-14.4184323030451527
 30
0.0
 10
-14.1047795499003001
 20
-14.1798096987179321
 30
0.0
 10
-14.0518165339536267
 20
-13.9310944177782527
 30
0.0
 10
-14.0022730068789301
 20
-13.67124996013162
 30
0.0
 10
-13.9535359124994223
 20
-13.3913206962167948
 30
0.0
 10
-13.9074810727452132
 20
-13.1107567261442313
 30
0.0
 10
-13.8601608227530804
 20
-12.8176791971846775
 30
0.0
 42
-0.0008966243321622
 10
-13.8592430948542926
 20
-12.8120600869167802
 30
0.0
 10
-13.8098399198833306
 20
-12.5129446769438495
 30
0.0
 42
-0.0024800080146065
 10
-13.807196653657261
 20
-12.4974201415248665
 30
0.0
 10
-13.7545765550624921
 20
-12.197371578834538
 30
0.0
 42
-0.0040477479181111
 10
-13.7499319654086669
 20
-12.1720919310515008
 30
0.0
 10
-13.6922338002813184
 20
-11.871752392843046
 30
0.0
 42
-0.0056061518647381
 10
-13.6851263598510613
 20
-11.8368711942272444
 30
0.0
 10
-13.6204889852823143
 20
-11.5368828576999718
 30
0.0
 42
-0.0071565750263611
 10
-13.6102826324372099
 20
-11.4926019496030847
 30
0.0
 10
-13.5368449055183113
 20
-11.1936069919562549
 30
0.0
 42
-0.0086937847661103
 10
-13.5227479003011481
 20
-11.1402359819908181
 30
0.0
 10
-13.438648678123279
 20
-10.8428765804237486
 30
0.0
 42
-0.0089045544654609
 10
-13.4222953349094354
 20
-10.7887537923355801
 30
0.0
 10
-13.3271689837208811
 20
-10.4930496579175561
 30
0.0
 42
-0.0029758996191267
 10
-13.3212750947588727
 20
-10.4750955234929286
 30
0.0
 10
-13.226475775794345
 20
-10.1920118434613762
 30
0.0
 10
-13.1472271586870022
 20
-9.9400165720375746
 30
0.0
 10
-13.0901848754177124
 20
-9.7230347454757045
 30
0.0
 10
-13.0553504106359597
 20
-9.5341997965950362
 30
0.0
 10
-13.0407711897988747
 20
-9.3623617145488751
 30
0.0
 10
-13.0459064589592515
 20
-9.1908686688225991
 30
0.0
 10
-13.0754013383346646
 20
-8.9994667519566924
 30
0.0
 10
-13.14080883581655
 20
-8.7679815575877917
 30
0.0
 10
-13.2606743409321517
 20
-8.4754959904395903
 30
0.0
 10
-13.4452361714991042
 20
-8.1209343498188389
 30
0.0
 10
-13.6881461489813745
 20
-7.7251468963555965
 30
0.0
 10
-13.9775507625623447
 20
-7.3100088135133809
 30
0.0
 10
-14.3011492538036507
 20
-6.893342530022224
 30
0.0
 10
-14.6463254835882353
 20
-6.4909144826444241
 30
0.0
 10
-14.999756058070048
 20
-6.117614128966693
 30
0.0
 10
-15.346579839327358
 20
-5.7882358392496691
 30
0.0
 10
-15.6688234119065548
 20
-5.5180219948552214
 30
0.0
 10
-15.9479424005384018
 20
-5.3186104043577984
 30
0.0
 10
-16.1775125960102422
 20
-5.1858760397645369
 30
0.0
 10
-16.3626321464194362
 20
-5.1041875164159514
 30
0.0
 10
-16.5094322194348173
 20
-5.0592493308215793
 30
0.0
 10
-16.6284637732568399
 20
-5.0384730440688195
 30
0.0
 10
-16.7336912475581698
 20
-5.0333434760772846
 30
0.0
 10
-16.8392819229171309
 20
-5.0405958450191655
 30
0.0
 10
-16.9564736317029094
 20
-5.0610758850412303
 30
0.0
 10
-17.0923233044514866
 20
-5.0972240209871096
 30
0.0
 10
-17.2472899483941298
 20
-5.1497518430972598
 30
0.0
 10
-17.4112160495795401
 20
-5.2144045366025971
 30
0.0
 10
-17.5756994112334723
 20
-5.2874239882546163
 30
0.0
 10
-17.7413410165955874
 20
-5.3683591101530688
 30
0.0
 10
-17.9101020628622685
 20
-5.4572973620243808
 30
0.0
 10
-18.0951237576347168
 20
-5.5604840461180167
 30
0.0
 10
-18.2698880780156827
 20
-5.6619961513270844
 30
0.0
 10
-18.4526333808910721
 20
-5.7701063825472438
 30
0.0
 10
-18.6449093632549641
 20
-5.8839997317352264
 30
0.0
 42
-0.0018091281640777
 10
-18.6548145442342843
 20
-5.8898186525218374
 30
0.0
 10
-18.8482689765287077
 20
-6.00252630483158
 30
0.0
 42
-0.0038760269728427
 10
-18.8696307884716852
 20
-6.0147510051818474
 30
0.0
 10
-19.0637658487790809
 20
-6.1238594514202376
 30
0.0
 42
-0.0063812348494655
 10
-19.0993390521640194
 20
-6.1432592469935337
 30
0.0
 10
-19.2901552076755429
 20
-6.2441827243783372
 30
0.0
 42
-0.0099465089090137
 10
-19.3465580106919539
 20
-6.2725933224101844
 30
0.0
 10
-19.5281576574356741
 20
-6.3595820331931954
 30
0.0
 42
-0.0156380343869894
 10
-19.6189900789512635
 20
-6.3996499959838973
 30
0.0
 10
-19.7854700139252806
 20
-6.4669507086854132
 30
0.0
 42
-0.0259967123995873
 10
-19.9414189761695013
 20
-6.5207488627634147
 30
0.0
 10
-20.0868759963719228
 20
-6.5626083459038149
 30
0.0
 42
-0.0476541402723273
 10
-20.3836438930562061
 20
-6.6181366324549131
 30
0.0
 10
-20.5021747954851143
 20
-6.6288016545545112
 30
0.0
 42
-0.0971302075563521
 10
-21.1098909838008559
 20
-6.5654207733439529
 30
0.0
 10
-21.1955925654543407
 20
-6.5391381029231042
 30
0.0
 42
-0.1704866048399306
 10
-22.042352710501067
 20
-5.9148565038070027
 30
0.0
 10
-22.0893217683772498
 20
-5.8458729093859887
 30
0.0
 42
-0.1454905229533711
 10
-22.3642955230794378
 20
-4.9839579615883798
 30
0.0
 10
-22.3666288541763905
 20
-4.8665202116875683
 30
0.0
 42
-0.0731781570962376
 10
-22.3084394572331561
 20
-4.4079915517712722
 30
0.0
 10
-22.260648303867093
 20
-4.2368588124847939
 30
0.0
 42
-0.0344009678754113
 10
-22.1876591028350063
 20
-4.0312413224414536
 30
0.0
 10
-22.0916948296722424
 20
-3.8103713211078123
 30
0.0
 42
-0.0183469892641046
 10
-22.0413974262089596
 20
-3.7053281104829425
 30
0.0
 10
-21.9056469048150149
 20
-3.4466350839663313
 30
0.0
 42
-0.0119081450291037
 10
-21.8689312513984504
 20
-3.3805425126287232
 30
0.0
 10
-21.701993549341644
 20
-3.0962030453510536
 30
0.0
 42
-0.008967633041376
 10
-21.672289085842511
 20
-3.0476253137034988
 30
0.0
 10
-21.4827632706912439
 20
-2.7498159900867023
 30
0.0
 42
-0.0076770478745242
 10
-21.455963161119584
 20
-2.7090978885724724
 30
0.0
 10
-21.2524483004421896
 20
-2.4099952930384951
 30
0.0
 42
-0.0074307508818578
 10
-21.2253290916108597
 20
-2.3713850329145068
 30
0.0
 10
-21.0164242529756962
 20
-2.0831657498852572
 30
0.0
 42
-0.0081475653551274
 10
-20.985384970484521
 20
-2.0417782045403361
 30
0.0
 10
-20.7796892214599325
 20
-1.7766188184377114
 30
0.0
 42
-0.0102005142373233
 10
-20.7389556733105422
 20
-1.7262652584897624
 30
0.0
 10
-20.5450680814648834
 20
-1.4963423537357592
 30
0.0
 42
-0.0148596749154927
 10
-20.4821363115156458
 20
-1.4260624108546121
 30
0.0
 10
-20.3085965726768976
 20
-1.2434792661914358
 30
0.0
 42
-0.0243554732192723
 10
-20.1967841921275308
 20
-1.1367623206258841
 30
0.0
 10
-20.0465904813617399
 20
-1.0067801558781397
 30
0.0
 42
-0.0376472352616836
 10
-19.8548459573202294
 20
-0.8645759365929813
 30
0.0
 10
-19.7210205723847096
 20
-0.7801388580644613
 30
0.0
 42
-0.0507497312499779
 10
-19.4332075541841363
 20
-0.6370207387658136
 30
0.0
 10
-19.3077292751268885
 20
-0.5897844321343833
 30
0.0
 42
-0.0536072537288896
 10
-18.9790981339471614
 20
-0.5048449046731915
 30
0.0
 10
-18.8539457408162505
 20
-0.4864650556167014
 30
0.0
 42
-0.040488772584039
 10
-18.597802946009935
 20
-0.4698221110894465
 30
0.0
 10
-18.4649552188533832
 20
-0.4719544052858602
 30
0.0
 42
-0.0199802938773151
 10
-18.3383298232960996
 20
-0.4790534280804235
 30
0.0
 10
-18.1897655421619433
 20
-0.4933535512076546
 30
0.0
 42
-0.0022100217773471
 10
-18.1758026150188812
 20
-0.4947598745494852
 30
0.0
 10
-18.0336889290461144
 20
-0.5097081406102539
 30
0.0
 10
-17.9102531114162744
 20
-0.5179364499424608
 30
0.0
 10
-17.7183880271718266
 20
-0.5185169237855867
 30
0.0
 10
-17.75225416984091
 20
-0.1577202015152466
 30
0.0
 42
-0.0468295192296503
 10
-17.7522541698409135
 20
0.1389965446200354
 30
0.0
 10
-17.7183880271718266
 20
0.4997932668903218
 30
0.0
 10
-17.910253111416317
 20
0.4992127930471959
 30
0.0
 10
-18.0336889290461571
 20
0.490984483714989
 30
0.0
 10
-18.1758026150188812
 20
0.476036217654201
 30
0.0
 42
-0.0022100217773596
 10
-18.1897655421620215
 20
0.474629894312437
 30
0.0
 10
-18.3383298232961778
 20
0.4603297711851049
 30
0.0
 42
-0.0199802938772892
 10
-18.4649552188532979
 20
0.4532307483906401
 30
0.0
 10
-18.5978029460098497
 20
0.4510984541941667
 30
0.0
 42
-0.0404887725840662
 10
-18.8539457408163358
 20
0.4677413987215142
 30
0.0
 10
-18.9790981339472467
 20
0.4861212477780441
 30
0.0
 42
-0.0536072537288212
 10
-19.3077292751265617
 20
0.5710607752389825
 30
0.0
 10
-19.4332075541838165
 20
0.6182970818703595
 30
0.0
 42
-0.0507497312500668
 10
-19.7210205723849015
 20
0.7614152011692719
 30
0.0
 10
-19.8548459573204141
 20
0.8458522796977839
 30
0.0
 42
-0.0376472352616361
 10
-20.0465904813616724
 20
0.9880564989828253
 30
0.0
 10
-20.196784192127474
 20
1.1180386637305695
 30
0.0
 42
-0.0243554732192763
 10
-20.308596572676862
 20
1.2247556092961083
 30
0.0
 10
-20.4821363115156103
 20
1.4073387539592659
 30
0.0
 42
-0.0148596749154976
 10
-20.5450680814648692
 20
1.4776186968404101
 30
0.0
 10
-20.738955673310528
 20
1.7075416015944285
 30
0.0
 42
-0.0102005142373392
 10
-20.7796892214599858
 20
1.7578951615424896
 30
0.0
 10
-20.9853849704845601
 20
2.0230545476450956
 30
0.0
 42
-0.0081475653551157
 10
-21.0164242529756891
 20
2.0644420929899536
 30
0.0
 10
-21.2253290916108526
 20
2.3526613760192667
 30
0.0
 42
-0.0074307508818623
 10
-21.2524483004422109
 20
2.3912716361432205
 30
0.0
 10
-21.4559631611195982
 20
2.6903742316771933
 30
0.0
 42
-0.0076770478745105
 10
-21.4827632706912084
 20
2.7310923331913388
 30
0.0
 10
-21.672289085842479
 20
3.0289016568081344
 30
0.0
 42
-0.0089676330413798
 10
-21.7019935493416405
 20
3.0774793884557115
 30
0.0
 10
-21.8689312513984362
 20
3.3618188557333646
 30
0.0
 42
-0.0119081450291124
 10
-21.9056469048150291
 20
3.427911427071014
 30
0.0
 10
-22.0413974262089738
 20
3.686604453587659
 30
0.0
 42
-0.0183469892641083
 10
-22.0916948296722637
 20
3.7916476642125652
 30
0.0
 10
-22.1876591028350205
 20
4.012517665546202
 30
0.0
 42
-0.0344009678754074
 10
-22.2606483038671072
 20
4.2181351555895334
 30
0.0
 10
-22.3084394572331703
 20
4.3892678948760029
 30
0.0
 42
-0.0731781570962342
 10
-22.3666288541764047
 20
4.8477965547922723
 30
0.0
 10
-22.3642955230794414
 20
4.965234304693066
 30
0.0
 42
-0.145490522953367
 10
-22.0893217683772676
 20
5.8271492524906741
 30
0.0
 10
-22.0423527105010919
 20
5.8961328469116658
 30
0.0
 42
-0.1704866048399211
 10
-21.1955925654544401
 20
6.5204144460277851
 30
0.0
 10
-21.1098909838009448
 20
6.5466971164486445
 30
0.0
 42
-0.0971302075563366
 10
-20.5021747954853026
 20
6.6100779976592214
 30
0.0
 10
-20.3836438930563943
 20
6.5994129755596411
 30
0.0
 42
-0.0476541402723567
 10
-20.0868759963719299
 20
6.5438846890085216
 30
0.0
 10
-19.9414189761695084
 20
6.5020252058681329
 30
0.0
 42
-0.0259967123995964
 10
-19.7854700139252273
 20
6.4482270517901092
 30
0.0
 10
-19.6189900789512137
 20
6.3809263390885782
 30
0.0
 42
-0.0156380343869799
 10
-19.5281576574356777
 20
6.3408583762979047
 30
0.0
 10
-19.3465580106919575
 20
6.2538696655149018
 30
0.0
 42
-0.0099465089090135
 10
-19.2901552076755465
 20
6.2254590674830297
 30
0.0
 10
-19.0993390521640265
 20
6.1245355900982297
 30
0.0
 42
-0.0063812348494796
 10
-19.0637658487790098
 20
6.1051357945249052
 30
0.0
 10
-18.8696307884716106
 20
5.9960273482864999
 30
0.0
 42
-0.0038760269728151
 10
-18.8482689765287859
 20
5.9838026479363151
 30
0.0
 10
-18.6548145442343625
 20
5.8710949956265956
 30
0.0
 42
-0.0018091281640847
 10
-18.6449093632550031
 20
5.8652760748399579
 30
0.0
 10
-18.4514822978694824
 20
5.7507015483954298
 30
0.0
 10
-18.2578805425629227
 20
5.6362444405763164
 30
0.0
 10
-18.0724563268931675
 20
5.5288735662285653
 30
0.0
 10
-17.9101020628624354
 20
5.4385737051291834
 30
0.0
 10
-17.7413410165955128
 20
5.3496354532577435
 30
0.0
 10
-17.5756994112336784
 20
5.2687003313594083
 30
0.0
 10
-17.4112160495794015
 20
5.1956808797072433
 30
0.0
 10
-17.2472899483941582
 20
5.1310281862019842
 30
0.0
 10
-17.0923233044515506
 20
5.0785003640918553
 30
0.0
 10
-16.956473631702913
 20
5.042352228145969
 30
0.0
 10
-16.8392819229171309
 20
5.0218721881238899
 30
0.0
 10
-16.7336912475582054
 20
5.0146198191820055
 30
0.0
 10
-16.6284637732568115
 20
5.0197493871735368
 30
0.0
 10
-16.5094322194347924
 20
5.0405256739263002
 30
0.0
 10
-16.3626321464194859
 20
5.0854638595206474
 30
0.0
 10
-16.1775125960102102
 20
5.167152382869272
 30
0.0
 10
-15.9479424005384018
 20
5.2998867474625193
 30
0.0
 10
-15.6688234119066543
 20
5.4992983379598677
 30
0.0
 10
-15.3465798393273083
 20
5.7695121823544362
 30
0.0
 10
-14.9997560580700515
 20
6.0988904720714139
 30
0.0
 10
-14.6463254835882566
 20
6.4721908257491272
 30
0.0
 10
-14.3011492538036151
 20
6.8746188731269662
 30
0.0
 10
-13.9775507625623732
 20
7.2912851566180699
 30
0.0
 10
-13.6881461489813816
 20
7.7064232394603103
 30
0.0
 10
-13.4452361714991113
 20
8.1022106929235527
 30
0.0
 10
-13.2606743409321552
 20
8.4567723335443041
 30
0.0
 10
-13.14080883581655
 20
8.7492579006925162
 30
0.0
 10
-13.0754013383346859
 20
8.9807430950613742
 30
0.0
 10
-13.0459064589592444
 20
9.1721450119273591
 30
0.0
 10
-13.0407711897988676
 20
9.3436380576536244
 30
0.0
 10
-13.0553504106359597
 20
9.5154761396997323
 30
0.0
 10
-13.0901848754176982
 20
9.7043110885803578
 30
0.0
 10
-13.1472271586870164
 20
9.9212929151423417
 30
0.0
 10
-13.2264757757943343
 20
10.173288186566058
 30
0.0
 10
-13.3212750947588816
 20
10.4563718665977028
 30
0.0
 42
-0.0029758996191195
 10
-13.3271689837208864
 20
10.4743260010222876
 30
0.0
 10
-13.4222953349094283
 20
10.7700301354403116
 30
0.0
 42
-0.0089045544654585
 10
-13.438648678123279
 20
10.8241529235284606
 30
0.0
 10
-13.522747900301141
 20
11.1215123250955195
 30
0.0
 42
-0.0086937847661071
 10
-13.5368449055183024
 20
11.1748833350609296
 30
0.0
 10
-13.6102826324372117
 20
11.4738782927077629
 30
0.0
 42
-0.007156575026372
 10
-13.6204889852823285
 20
11.518159200804714
 30
0.0
 10
-13.6851263598510613
 20
11.8181475373319991
 30
0.0
 42
-0.0056061518647327
 10
-13.692233800281322
 20
11.8530287359477562
 30
0.0
 10
-13.749931965408674
 20
12.1533682741562039
 30
0.0
 42
-0.0040477479181127
 10
-13.7545765550625028
 20
12.1786479219392554
 30
0.0
 10
-13.8071966536572646
 20
12.4786964846295909
 30
0.0
 42
-0.0024800080145965
 10
-13.8098399198833235
 20
12.4942210200485206
 30
0.0
 10
-13.8592430948542926
 20
12.7933364300214159
 30
0.0
 42
-0.0008966243321761
 10
-13.860160822753091
 20
12.798955540289402
 30
0.0
 10
-13.908208217009026
 20
13.0964956203456531
 30
0.0
 10
-13.9560338291949471
 20
13.3873556421892097
 30
0.0
 10
-14.0022730068788732
 20
13.652526303235998
 30
0.0
 10
-14.0518165339536552
 20
13.9123707608831104
 30
0.0
 10
-14.1047795499003072
 20
14.161086041822653
 30
0.0
 10
-14.1621462259454169
 20
14.3997086461499499
 30
0.0
 10
-14.2247672588651177
 20
14.6289759600314575
 30
0.0
 10
-14.2934981297718799
 20
14.8498396267323223
 30
0.0
 10
-14.3692549719937475
 20
15.0634764066363154
 30
0.0
 10
-14.4530755541645419
 20
15.2712737534577236
 30
0.0
 10
-14.5461770071191729
 20
15.4747886016911416
 30
0.0
 10
-14.6501109382612995
 20
15.6758960244000853
 30
0.0
 10
-14.7691071397703446
 20
15.8807504289305506
 30
0.0
 10
-14.9069083167708278
 20
16.0959044218321914
 30
0.0
 10
-15.0609556475161277
 20
16.3200243291517815
 30
0.0
 10
-15.2255300612534938
 20
16.5480076998421985
 30
0.0
 10
-15.3978488014562735
 20
16.7796063571503957
 30
0.0
 10
-15.56298959797493
 20
16.998913562596389
 30
0.0
 42
-0.0011009946957964
 10
-15.5671823124718589
 20
17.0045081609296211
 30
0.0
 10
-15.7232855146699215
 20
17.2137649083966302
 30
0.0
 42
-0.004425894352746
 10
-15.7398899045003287
 20
17.2364391720491277
 30
0.0
 10
-15.8757861086388914
 20
17.4255016835157086
 30
0.0
 42
-0.0095466484106269
 10
-15.9102187701431994
 20
17.4753880950694302
 30
0.0
 10
-16.0201197102001203
 20
17.6413023595305951
 30
0.0
 42
-0.0188652955032133
 10
-16.0824381135916497
 20
17.7435616365025801
 30
0.0
 10
-16.1605727443547629
 20
17.8833829336961578
 30
0.0
 42
-0.0352222814700826
 10
-16.2555536706652397
 20
18.0855689706723943
 30
0.0
 10
-16.2989471759494435
 20
18.197861164702811
 30
0.0
  0
LINE
  5
49
100
AcDbEntity
100
AcDbLine
  8
toolPath
 62
256
370
-1
  6
ByLayer
 10
-6.2959362388247015
 20
-10.8480702084638025
 30
0.0
 11
-5.707778685793901
 21
-9.7943948237858756
 31
0.0
  0
LINE
  5
4A
100
AcDbEntity
100
AcDbLine
  8
toolPath
 62
256
370
-1
  6
ByLayer
 10
-6.2959362388246802
 20
10.8293465515685163
 30
0.0
 11
-5.7077786857938833
 21
9.7756711668905787
 31
0.0
  0
ENDBLK
  5
4B
100
AcDbEntity
  8
0
100
AcDbBlockEnd
  0
ENDSEC
  0
SECTION
  2
ENTITIES
  0
INSERT
  5
4C
100
AcDbEntity
100
AcDbBlockReference
  8
0
 62
256
370
-1
  6
ByLayer
  2
toolpath
 10
74.1413838620059522
 20
23.301577785201868
 30
0.0
 50
112.0
 44
1.0
 45
1.0
  0
INSERT
  5
4D
100
AcDbEntity
100
AcDbBlockReference
  8
0
 62
256
370
-1
  6
ByLayer
  2
toolpath
 10
128.9152225518960506
 20
23.6041956785161773
 30
0.0
 50
112.0
 44
1.0
 45
1.0
  0
INSERT
  5
4E
100
AcDbEntity
100
AcDbBlockReference
  8
0
 62
256
370
-1
  6
ByLayer
  2
toolpath
 10
181.5707359885859944
 20
23.9068135718304902
 30
0.0
 50
112.0
 44
1.0
 45
1.0
  0
INSERT
  5
4F
100
AcDbEntity
100
AcDbBlockReference
  8
0
 62
256
370
-1
  6
ByLayer
  2
toolpath
 10
22.9989598918875586
 20
23.9068135718304902
 30
0.0
 50
115.0
 44
1.0
 45
1.0
  0
INSERT
  5
50
100
AcDbEntity
100
AcDbBlockReference
  8
0
 62
256
370
-1
  6
ByLayer
  2
toolpath
 10
100.12001595538473
 20
65.3654649558909568
 30
0.0
 50
149.9999999999999716
 44
1.0
 45
1.0
  0
INSERT
  5
51
100
AcDbEntity
100
AcDbBlockReference
  8
0
 62
256
370
-1
  6
ByLayer
  2
toolpath
 10
47.2083913570323546
 20
66.8785544224624999
 30
0.0
 50
149.9999999999999716
 44
1.0
 45
1.0
  0
INSERT
  5
52
100
AcDbEntity
100
AcDbBlockReference
  8
0
 62
256
370
-1
  6
ByLayer
  2
toolpath
 10
204.8074147090130452
 20
66.3069642760177942
 30
0.0
 50
149.9999999999999716
 44
1.0
 45
1.0
  0
INSERT
  5
53
100
AcDbEntity
100
AcDbBlockReference
  8
0
 62
256
370
-1
  6
ByLayer
  2
toolpath
 10
152.8220361237265763
 20
65.3654649558909568
 30
0.0
 50
149.9999999999999716
 44
1.0
 45
1.0
  0
ENDSEC
  0
SECTION
  2
OBJECTS
  0
DICTIONARY
  5
C
100
AcDbDictionary
280
0
281
1
  3
ACAD_GROUP
350
D
  3
ACAD_LAYOUT
350
1A
  3
ACAD_MLINESTYLE
350
17
  3
ACAD_PLOTSETTINGS
350
19
  3
ACAD_PLOTSTYLENAME
350
E
  3
AcDbVariableDictionary
350
54
  0
DICTIONARY
  5
D
100
AcDbDictionary
280
0
281
1
  0
ACDBDICTIONARYWDFLT
  5
E
100
AcDbDictionary
281
1
  3
Normal
350
F
100
AcDbDictionaryWithDefault
340
F
  0
ACDBPLACEHOLDER
  5
F
  0
DICTIONARY
  5
17
100
AcDbDictionary
280
0
281
1
  3
Standard
350
18
  0
MLINESTYLE
  5
18
100
AcDbMlineStyle
  2
STANDARD
 70
0
  3

 62
256
 51
90.0
 52
90.0
 71
2
 49
0.5
 62
256
  6
BYLAYER
 49
-0.5
 62
256
  6
BYLAYER
  0
DICTIONARY
  5
19
100
AcDbDictionary
280
0
281
1
  0
DICTIONARY
  5
1A
100
AcDbDictionary
281
1
  3
Layout1
350
1E
  3
Layout2
350
26
  3
Model
350
22
  0
LAYOUT
  5
1E
100
AcDbPlotSettings
  1

  2
C:\Program Files\AutoCAD 2002\plotters\DWF ePlot (optimized for plotting).pc3
  4

  6

 40
0.0
 41
0.0
 42
0.0
 43
0.0
 44
0.0
 45
0.0
 46
0.0
 47
0.0
 48
0.0
 49
0.0
140
0.0
141
0.0
142
1.0
143
1.0
 70
688
 72
0
 73
0
 74
5
  7

 75
16
147
1.0
148
0.0
149
0.0
100
AcDbLayout
  1
Layout1
 70
1
 71
1
 10
0.0
 20
0.0
 11
420.0
 21
297.0
 12
0.0
 22
0.0
 32
0.0
 14
100000000000000000000.0
 24
100000000000000000000.0
 34
100000000000000000000.0
 15
-100000000000000000000.0
 25
-100000000000000000000.0
 35
-100000000000000000000.0
146
0.0
 13
0.0
 23
0.0
 33
0.0
 16
1.0
 26
0.0
 36
0.0
 17
0.0
 27
1.0
 37
0.0
 76
0
330
1B
  0
LAYOUT
  5
22
100
AcDbPlotSettings
  1

  2
C:\Program Files\AutoCAD 2002\plotters\DWF ePlot (optimized for plotting).pc3
  4

  6

 40
0.0
 41
0.0
 42
0.0
 43
0.0
 44
0.0
 45
0.0
 46
0.0
 47
0.0
 48
0.0
 49
0.0
140
0.0
141
0.0
142
1.0
143
1.0
 70
1712
 72
0
 73
0
 74
0
  7

 75
0
147
1.0
148
0.0
149
0.0
100
AcDbLayout
  1
Model
 70
1
 71
0
 10
0.0
 20
0.0
 11
12.0
 21
9.0
 12
0.0
 22
0.0
 32
0.0
 14
0.0
 24
0.0
 34
0.0
 15
0.0
 25
0.0
 35
0.0
146
0.0
 13
0.0
 23
0.0
 33
0.0
 16
1.0
 26
0.0
 36
0.0
 17
0.0
 27
1.0
 37
0.0
 76
0
330
1F
  0
LAYOUT
  5
26
100
AcDbPlotSettings
  1

  2
C:\Program Files\AutoCAD 2002\plotters\DWF ePlot (optimized for plotting).pc3
  4

  6

 40
0.0
 41
0.0
 42
0.0
 43
0.0
 44
0.0
 45
0.0
 46
0.0
 47
0.0
 48
0.0
 49
0.0
140
0.0
141
0.0
142
1.0
143
1.0
 70
688
 72
0
 73
0
 74
5
  7

 75
16
147
1.0
148
0.0
149
0.0
100
AcDbLayout
  1
Layout2
 70
1
 71
2
 10
0.0
 20
0.0
 11
12.0
 21
9.0
 12
0.0
 22
0.0
 32
0.0
 14
0.0
 24
0.0
 34
0.0
 15
0.0
 25
0.0
 35
0.0
146
0.0
 13
0.0
 23
0.0
 33
0.0
 16
1.0
 26
0.0
 36
0.0
 17
0.0
 27
1.0
 37
0.0
 76
0
330
23
  0
DICTIONARY
  5
54
100
AcDbDictionary
281
1
  3
DIMASSOC
350
56
  3
HIDETEXT
350
55
  0
DICTIONARYVAR
  5
55
100
DictionaryVariables
280
0
  1
2
  0
DICTIONARYVAR
  5
56
100
DictionaryVariables
280
0
  1
1
  0
ENDSEC
  0
EOF
