999
dxflib 2.2.0.0
  0
SECTION
  2
HEADER
  9
$ACADVER
  1
AC1009
  9
$DIMASZ
 40
2.5
  9
$PLIMMIN
 10
0.0
 20
0.0
  9
$DIMEXE
 40
1.25
  9
$DIMGAP
 40
0.625
  9
$PLIMMAX
 10
210.0
 20
297.0
  9
$DIMEXO
 40
0.625
  9
$DIMTXT
 40
2.5
  9
$CLAYER
  8
0
  0
ENDSEC
  0
SECTION
  2
TABLES
  0
TABLE
  2
VPORT
 70
1
  0
VPORT
  2
*Active
 70
0
 10
0.0
 20
0.0
 11
1.0
 21
1.0
 12
286.3055555555554861
 22
148.5
 13
0.0
 23
0.0
 14
10.0
 24
10.0
 15
10.0
 25
10.0
 16
0.0
 26
0.0
 36
1.0
 17
0.0
 27
0.0
 37
0.0
 40
297.0
 41
1.92798353909465
 42
50.0
 43
0.0
 44
0.0
 50
0.0
 51
0.0
 71
0
 72
100
 73
1
 74
3
 75
1
 76
1
 77
0
 78
0
  0
ENDTAB
  0
TABLE
  2
LTYPE
 70
19
  0
LTYPE
  2
CONTINUOUS
 70
0
  3
Solid line
 72
65
 73
0
 40
0.0
  0
LTYPE
  2
DOT
 70
0
  3
Dot . . . . . . . . . . . . . . . . . . . . . .
 72
65
 73
2
 40
6.3499999999999996
 49
0.0
 49
-6.3499999999999996
  0
LTYPE
  2
DOT2
 70
0
  3
Dot (.5x) .....................................
 72
65
 73
2
 40
3.1749999999999998
 49
0.0
 49
-3.1749999999999998
  0
LTYPE
  2
DOTX2
 70
0
  3
Dot (2x) .  .  .  .  .  .  .  .  .  .  .  .  .
 72
65
 73
2
 40
12.6999999999999993
 49
0.0
 49
-12.6999999999999993
  0
LTYPE
  2
DASHED
 70
0
  3
Dashed __ __ __ __ __ __ __ __ __ __ __ __ __ _
 72
65
 73
2
 40
19.0500000000000007
 49
12.6999999999999993
 49
-6.3499999999999996
  0
LTYPE
  2
DASHED2
 70
0
  3
Dashed (.5x) _ _ _ _ _ _ _ _ _ _ _ _ _ _ _ _ _
 72
65
 73
2
 40
9.5250000000000004
 49
6.3499999999999996
 49
-3.1749999999999998
  0
LTYPE
  2
DASHEDX2
 70
0
  3
Dashed (2x) ____  ____  ____  ____  ____  ___
 72
65
 73
2
 40
38.1000000000000014
 49
25.3999999999999986
 49
-12.6999999999999993
  0
LTYPE
  2
DASHDOT
 70
0
  3
Dash dot __ . __ . __ . __ . __ . __ . __ . __
 72
65
 73
4
 40
25.3999999999999986
 49
12.6999999999999993
 49
-6.3499999999999996
 49
0.0
 49
-6.3499999999999996
  0
LTYPE
  2
DASHDOT2
 70
0
  3
Dash dot (.5x) _._._._._._._._._._._._._._._.
 72
65
 73
4
 40
12.6999999999999993
 49
6.3499999999999996
 49
-3.1749999999999998
 49
0.0
 49
-3.1749999999999998
  0
LTYPE
  2
DASHDOTX2
 70
0
  3
Dash dot (2x) ____  .  ____  .  ____  .  ___
 72
65
 73
4
 40
50.7999999999999972
 49
25.3999999999999986
 49
-12.6999999999999993
 49
0.0
 49
-12.6999999999999993
  0
LTYPE
  2
DIVIDE
 70
0
  3
Divide ____ . . ____ . . ____ . . ____ . . ____
 72
65
 73
6
 40
31.75
 49
12.6999999999999993
 49
-6.3499999999999996
 49
0.0
 49
-6.3499999999999996
 49
0.0
 49
-6.3499999999999996
  0
LTYPE
  2
DIVIDE2
 70
0
  3
Divide (.5x) __..__..__..__..__..__..__..__.._
 72
65
 73
6
 40
15.875
 49
6.3499999999999996
 49
-3.1749999999999998
 49
0.0
 49
-3.1749999999999998
 49
0.0
 49
-3.1749999999999998
  0
LTYPE
  2
DIVIDEX2
 70
0
  3
Divide (2x) ________  .  .  ________  .  .  _
 72
65
 73
6
 40
63.5
 49
25.3999999999999986
 49
-12.6999999999999993
 49
0.0
 49
-12.6999999999999993
 49
0.0
 49
-12.6999999999999993
  0
LTYPE
  2
CENTER
 70
0
  3
Center ____ _ ____ _ ____ _ ____ _ ____ _ ____
 72
65
 73
4
 40
50.7999999999999972
 49
31.75
 49
-6.3499999999999996
 49
6.3499999999999996
 49
-6.3499999999999996
  0
LTYPE
  2
CENTER2
 70
0
  3
Center (.5x) ___ _ ___ _ ___ _ ___ _ ___ _ ___
 72
65
 73
4
 40
28.5749999999999993
 49
19.0500000000000007
 49
-3.1749999999999998
 49
3.1749999999999998
 49
-3.1749999999999998
  0
LTYPE
  2
CENTERX2
 70
0
  3
Center (2x) ________  __  ________  __  _____
 72
65
 73
4
 40
101.5999999999999943
 49
63.5
 49
-12.6999999999999993
 49
12.6999999999999993
 49
-12.6999999999999993
  0
LTYPE
  2
BORDER
 70
0
  3
Border __ __ . __ __ . __ __ . __ __ . __ __ .
 72
65
 73
6
 40
44.4500000000000028
 49
12.6999999999999993
 49
-6.3499999999999996
 49
12.6999999999999993
 49
-6.3499999999999996
 49
0.0
 49
-6.3499999999999996
  0
LTYPE
  2
BORDER2
 70
0
  3
Border (.5x) __.__.__.__.__.__.__.__.__.__.__.
 72
65
 73
6
 40
22.2250000000000014
 49
6.3499999999999996
 49
-3.1749999999999998
 49
6.3499999999999996
 49
-3.1749999999999998
 49
0.0
 49
-3.1749999999999998
  0
LTYPE
  2
BORDERX2
 70
0
  3
Border (2x) ____  ____  .  ____  ____  .  ___
 72
65
 73
6
 40
88.9000000000000057
 49
25.3999999999999986
 49
-12.6999999999999993
 49
25.3999999999999986
 49
-12.6999999999999993
 49
0.0
 49
-12.6999999999999993
  0
ENDTAB
  0
TABLE
  2
LAYER
 70
1
  0
LAYER
  2
0
 70
0
 62
7
  6
CONTINUOUS
  0
ENDTAB
  0
TABLE
  2
STYLE
 70
1
  0
STYLE
  2
Standard
 70
0
 40
0.0
 41
0.75
 50
0.0
 71
0
 42
2.5
  3
txt
  4

  0
ENDTAB
  0
TABLE
  2
VIEW
 70
0
  0
ENDTAB
  0
TABLE
  2
UCS
 70
0
  0
ENDTAB
  0
TABLE
  2
APPID
 70
1
  0
APPID
  2
ACAD
 70
0
  0
ENDTAB
  0
TABLE
  2
DIMSTYLE
 70
1
  0
DIMSTYLE
  2
Standard
  3

  4

  5

  6

  7

 40
1.0
 41
2.5
 42
0.625
 43
3.75
 44
1.25
 45
0.0
 46
0.0
 47
0.0
 48
0.0
 70
0
 71
0
 72
0
 73
0
 74
0
 75
0
 76
0
 77
1
 78
8
140
2.5
141
2.5
142
0.0
143
0.03937007874016
144
1.0
145
0.0
146
1.0
147
0.625
170
0
171
3
172
1
173
0
174
0
175
0
176
0
177
0
178
0
  0
ENDTAB
  0
ENDSEC
  0
SECTION
  2
BLOCKS
  0
ENDSEC
  0
SECTION
  2
ENTITIES
  0
POLYLINE
  8
0
 66
1
 70
0
 10
0.0
 20
0.0
 30
0.0
  0
VERTEX
  8
0
 10
11.75
 20
58.5
 30
0.0
  0
VERTEX
  8
0
 10
12.5
 20
59.75
 30
0.0
  0
VERTEX
  8
0
 10
13.5
 20
61.25
 30
0.0
  0
VERTEX
  8
0
 10
14.25
 20
62.5
 30
0.0
  0
VERTEX
  8
0
 10
15.0
 20
63.25
 30
0.0
  0
VERTEX
  8
0
 10
24.0
 20
64.5
 30
0.0
  0
VERTEX
  8
0
 10
28.25
 20
63.25
 30
0.0
  0
VERTEX
  8
0
 10
33.25
 20
57.0
 30
0.0
  0
VERTEX
  8
0
 10
34.5
 20
47.5
 30
0.0
  0
VERTEX
  8
0
 10
34.5
 20
45.25
 30
0.0
  0
VERTEX
  8
0
 10
34.5
 20
40.25
 30
0.0
  0
VERTEX
  8
0
 10
34.5
 20
39.5
 30
0.0
  0
VERTEX
  8
0
 10
34.5
 20
38.0
 30
0.0
  0
VERTEX
  8
0
 10
36.5
 20
37.0
 30
0.0
  0
VERTEX
  8
0
 10
38.75
 20
36.75
 30
0.0
  0
VERTEX
  8
0
 10
43.0
 20
38.5
 30
0.0
  0
VERTEX
  8
0
 10
44.75
 20
39.25
 30
0.0
  0
VERTEX
  8
0
 10
50.5
 20
42.0
 30
0.0
  0
VERTEX
  8
0
 10
56.0
 20
43.0
 30
0.0
  0
VERTEX
  8
0
 10
57.5
 20
42.75
 30
0.0
  0
VERTEX
  8
0
 10
61.25
 20
36.25
 30
0.0
  0
VERTEX
  8
0
 10
63.25
 20
31.25
 30
0.0
  0
VERTEX
  8
0
 10
64.25
 20
28.25
 30
0.0
  0
VERTEX
  8
0
 10
65.5
 20
25.25
 30
0.0
  0
VERTEX
  8
0
 10
66.0
 20
24.25
 30
0.0
  0
VERTEX
  8
0
 10
66.5
 20
23.75
 30
0.0
  0
VERTEX
  8
0
 10
67.0
 20
26.0
 30
0.0
  0
VERTEX
  8
0
 10
67.0
 20
26.75
 30
0.0
  0
VERTEX
  8
0
 10
69.25
 20
28.0
 30
0.0
  0
VERTEX
  8
0
 10
72.0
 20
27.75
 30
0.0
  0
VERTEX
  8
0
 10
73.5
 20
27.25
 30
0.0
  0
VERTEX
  8
0
 10
76.0
 20
25.5
 30
0.0
  0
VERTEX
  8
0
 10
77.75
 20
24.0
 30
0.0
  0
VERTEX
  8
0
 10
78.25
 20
23.5
 30
0.0
  0
VERTEX
  8
0
 10
78.5
 20
23.5
 30
0.0
  0
SEQEND
  0
POLYLINE
  8
0
 66
1
 70
0
 10
0.0
 20
0.0
 30
0.0
  0
VERTEX
  8
0
 10
11.0693649902156679
 20
58.9083810058706021
 30
0.0
  0
VERTEX
  8
0
 10
11.8290828416317098
 20
60.1745774248973433
 30
0.0
  0
VERTEX
  8
0
 10
12.8290828416317062
 20
61.6745774248973362
 30
0.0
  0
VERTEX
  8
0
 10
13.6196389894337386
 20
62.9921710045673819
 30
0.0
  0
VERTEX
  8
0
 10
14.6270367301528861
 20
63.9995687452865312
 30
0.0
  0
VERTEX
  8
0
 10
24.0600465660894933
 20
65.3097090002777207
 30
0.0
  0
VERTEX
  8
0
 10
28.7137079128951456
 20
63.9409850747466493
 30
0.0
  0
VERTEX
  8
0
 10
34.0080907624170621
 20
57.3230065128442519
 30
0.0
  0
VERTEX
  8
0
 10
35.2937500000000028
 20
47.5519963072139262
 30
0.0
  0
VERTEX
  8
0
 10
35.2937500000000028
 20
45.25
 30
0.0
  0
VERTEX
  8
0
 10
35.2937500000000028
 20
40.25
 30
0.0
  0
VERTEX
  8
0
 10
35.2937500000000028
 20
39.5
 30
0.0
  0
VERTEX
  8
0
 10
35.2937500000000028
 20
38.4905644785702279
 30
0.0
  0
VERTEX
  8
0
 10
36.728355243924419
 20
37.7732618566080163
 30
0.0
  0
VERTEX
  8
0
 10
38.6356857179638169
 20
37.5613362483814157
 30
0.0
  0
VERTEX
  8
0
 10
42.6925375149555464
 20
39.2318046353780119
 30
0.0
  0
VERTEX
  8
0
 10
44.4222902377410307
 20
39.9731272308575072
 30
0.0
  0
VERTEX
  8
0
 10
50.2534267924115667
 20
42.7619316700477654
 30
0.0
  0
VERTEX
  8
0
 10
55.9940761577588262
 20
43.8056861001109041
 30
0.0
  0
VERTEX
  8
0
 10
58.0002231318245833
 20
43.4713282710999351
 30
0.0
  0
VERTEX
  8
0
 10
61.9658985868290699
 20
36.5974908157588317
 30
0.0
  0
VERTEX
  8
0
 10
63.9956412198542921
 20
31.5231342331957798
 30
0.0
  0
VERTEX
  8
0
 10
64.9938464879310942
 20
28.5285184289653522
 30
0.0
  0
VERTEX
  8
0
 10
66.2221776071488648
 20
25.5805237428427255
 30
0.0
  0
VERTEX
  8
0
 10
66.6523469420068011
 20
24.7201850731268529
 30
0.0
  0
VERTEX
  8
0
 10
67.0612660075668288
 20
24.3112660075668217
 30
0.0
  0
VERTEX
  8
0
 10
66.2062499999999972
 20
26.0871317064881225
 30
0.0
  0
VERTEX
  8
0
 10
66.2062499999999972
 20
27.2170451582676023
 30
0.0
  0
VERTEX
  8
0
 10
69.0783058921568482
 20
28.8126317650214148
 30
0.0
  0
VERTEX
  8
0
 10
72.163608862271019
 20
28.5321496768292135
 30
0.0
  0
VERTEX
  8
0
 10
73.8605710574890395
 20
27.9664956117565389
 30
0.0
  0
VERTEX
  8
0
 10
76.4870417718038169
 20
26.1279661117361925
 30
0.0
  0
VERTEX
  8
0
 10
78.2897106929592752
 20
24.5828213221743646
 30
0.0
  0
VERTEX
  8
0
 10
78.8112660075668288
 20
24.0612660075668217
 30
0.0
  0
VERTEX
  8
0
 10
78.5
 20
24.2937499999999993
 30
0.0
  0
SEQEND
  0
ENDSEC
  0
EOF
